<svg width="290.244mm" height="127.572mm" viewBox="0 0 290.244 127.572" xmlns="http://www.w3.org/2000/svg"><g id="svgGroup" stroke-linecap="round" fill-rule="evenodd" font-size="9pt" stroke="#000" stroke-width="0.25mm" fill="none" style="stroke:#000;stroke-width:0.25mm;fill:none"><path d="M 105.058 84.953 L 116.628 98.742 L 102.839 110.312 L 91.269 96.523 L 105.058 84.953 Z M 119.612 72.74 L 131.183 86.529 L 117.394 98.099 L 105.824 84.31 L 119.612 72.74 Z M 173.616 98.742 L 185.186 84.953 L 198.975 96.523 L 187.405 110.312 L 173.616 98.742 Z M 159.061 86.529 L 170.631 72.74 L 184.42 84.31 L 172.85 98.099 L 159.061 86.529 Z M 63.943 61.852 L 80.858 68.008 L 74.702 84.923 L 57.787 78.767 L 63.943 61.852 Z M 209.386 68.008 L 226.3 61.852 L 232.457 78.767 L 215.542 84.923 L 209.386 68.008 Z M 86.021 70.696 L 100.766 81.021 L 90.442 95.765 L 75.697 85.441 L 86.021 70.696 Z M 189.478 81.021 L 204.223 70.696 L 214.547 85.441 L 199.802 95.765 L 189.478 81.021 Z M 119.755 103.651 L 127.362 119.965 L 111.049 127.572 L 103.442 111.258 L 119.755 103.651 Z M 136.975 95.622 L 144.582 111.935 L 128.269 119.542 L 120.662 103.229 L 136.975 95.622 Z M 162.881 119.965 L 170.489 103.651 L 186.802 111.258 L 179.195 127.572 L 162.881 119.965 Z M 145.662 111.935 L 153.269 95.622 L 169.582 103.229 L 161.975 119.542 L 145.662 111.935 Z M 9.576 20.109 L 26.963 24.767 L 22.304 42.154 L 4.918 37.495 L 9.576 20.109 Z M 14.494 1.756 L 31.881 6.415 L 27.222 23.801 L 9.835 19.143 L 14.494 1.756 Z M 27.929 25.026 L 45.316 29.685 L 40.657 47.072 L 23.27 42.413 L 27.929 25.026 Z M 32.846 6.674 L 50.233 11.332 L 45.574 28.719 L 28.188 24.06 L 32.846 6.674 Z M 49.387 18.353 L 66.774 23.011 L 62.115 40.398 L 44.729 35.739 L 49.387 18.353 Z M 54.305 0 L 71.692 4.659 L 67.033 22.045 L 49.646 17.387 L 54.305 0 Z M 69.034 18.441 L 86.421 23.099 L 81.762 40.486 L 64.375 35.827 L 69.034 18.441 Z M 73.952 0.088 L 91.338 4.747 L 86.679 22.133 L 69.293 17.475 L 73.952 0.088 Z M 263.281 24.767 L 280.668 20.109 L 285.326 37.495 L 267.94 42.154 L 263.281 24.767 Z M 258.363 6.415 L 275.75 1.756 L 280.409 19.143 L 263.022 23.801 L 258.363 6.415 Z M 244.928 29.685 L 262.315 25.026 L 266.974 42.413 L 249.587 47.072 L 244.928 29.685 Z M 240.011 11.332 L 257.397 6.674 L 262.056 24.06 L 244.669 28.719 L 240.011 11.332 Z M 223.47 23.011 L 240.856 18.353 L 245.515 35.739 L 228.129 40.398 L 223.47 23.011 Z M 218.552 4.659 L 235.939 0 L 240.598 17.387 L 223.211 22.045 L 218.552 4.659 Z M 203.823 23.099 L 221.21 18.441 L 225.869 35.827 L 208.482 40.486 L 203.823 23.099 Z M 4.659 38.461 L 22.045 43.12 L 17.387 60.507 L 0 55.848 L 4.659 38.461 Z M 23.011 43.379 L 40.398 48.037 L 35.739 65.424 L 18.353 60.765 L 23.011 43.379 Z M 44.47 36.705 L 61.856 41.364 L 57.198 58.751 L 39.811 54.092 L 44.47 36.705 Z M 64.116 36.793 L 81.503 41.452 L 76.844 58.839 L 59.458 54.18 L 64.116 36.793 Z M 80.916 47.506 L 98.303 52.165 L 93.644 69.552 L 76.257 64.893 L 80.916 47.506 Z M 85.834 29.154 L 103.22 33.812 L 98.562 51.199 L 81.175 46.54 L 85.834 29.154 Z M 198.906 4.747 L 216.292 0.088 L 220.951 17.475 L 203.564 22.133 L 198.906 4.747 Z M 187.023 33.812 L 204.41 29.154 L 209.069 46.54 L 191.682 51.199 L 187.023 33.812 Z M 98.751 54.356 L 116.138 59.014 L 111.479 76.401 L 94.092 71.742 L 98.751 54.356 Z M 268.198 43.12 L 285.585 38.461 L 290.244 55.848 L 272.857 60.507 L 268.198 43.12 Z M 249.846 48.037 L 267.232 43.379 L 271.891 60.765 L 254.505 65.424 L 249.846 48.037 Z M 228.387 41.364 L 245.774 36.705 L 250.433 54.092 L 233.046 58.751 L 228.387 41.364 Z M 208.741 41.452 L 226.127 36.793 L 230.786 54.18 L 213.399 58.839 L 208.741 41.452 Z M 174.106 59.014 L 191.493 54.356 L 196.151 71.742 L 178.765 76.401 L 174.106 59.014 Z M 90.751 10.801 L 108.138 15.46 L 103.479 32.846 L 86.092 28.188 L 90.751 10.801 Z M 108.586 17.65 L 125.973 22.309 L 121.314 39.696 L 103.927 35.037 L 108.586 17.65 Z M 191.941 52.165 L 209.328 47.506 L 213.986 64.893 L 196.6 69.552 L 191.941 52.165 Z M 182.106 15.46 L 199.493 10.801 L 204.151 28.188 L 186.765 32.846 L 182.106 15.46 Z M 164.271 22.309 L 181.658 17.65 L 186.316 35.037 L 168.93 39.696 L 164.271 22.309 Z M 103.669 36.003 L 121.055 40.662 L 116.397 58.048 L 99.01 53.39 L 103.669 36.003 Z M 169.189 40.662 L 186.575 36.003 L 191.234 53.39 L 173.847 58.048 L 169.189 40.662 Z" vector-effect="non-scaling-stroke"/></g></svg>