0
SECTION
2
HEADER
9
$INSUNITS
70
4
0
ENDSEC
0
SECTION
2
TABLES
0
TABLE
2
LTYPE
0
LTYPE
72
65
70
64
2
CONTINUOUS
3
______
73
0
40
0
0
ENDTAB
0
TABLE
2
LAYER
0
ENDTAB
0
ENDSEC
0
SECTION
2
ENTITIES
0
LINE
8
0
10
53.4032867
20
-117.1485726
11
70.7899515
21
-121.8073154
0
LINE
8
0
10
70.7899515
20
-121.8073154
11
66.1312087
21
-139.1939802
0
LINE
8
0
10
66.1312087
20
-139.1939802
11
48.7445439
21
-134.5352374
0
LINE
8
0
10
48.7445439
20
-134.5352374
11
53.4032867
21
-117.1485726
0
LINE
8
0
10
58.3208486
20
-98.7959819
11
75.7075134
21
-103.4547247
0
LINE
8
0
10
75.7075134
20
-103.4547247
11
71.0487706
21
-120.8413895
0
LINE
8
0
10
71.0487706
20
-120.8413895
11
53.6621058
21
-116.1826467
0
LINE
8
0
10
53.6621058
20
-116.1826467
11
58.3208486
21
-98.7959819
0
LINE
8
0
10
63.2384105
20
-80.4433912
11
80.6250753
21
-85.102134
0
LINE
8
0
10
80.6250753
20
-85.102134
11
75.9663325
21
-102.4887988
0
LINE
8
0
10
75.9663325
20
-102.4887988
11
58.5796677
21
-97.830056
0
LINE
8
0
10
58.5796677
20
-97.830056
11
63.2384105
21
-80.4433912
0
LINE
8
0
10
71.7558775
20
-122.0661345
11
89.1425423
21
-126.7248773
0
LINE
8
0
10
89.1425423
20
-126.7248773
11
84.4837995
21
-144.1115421
0
LINE
8
0
10
84.4837995
20
-144.1115421
11
67.0971347
21
-139.4527993
0
LINE
8
0
10
67.0971347
20
-139.4527993
11
71.7558775
21
-122.0661345
0
LINE
8
0
10
76.6734394
20
-103.7135438
11
94.0601042
21
-108.3722866
0
LINE
8
0
10
94.0601042
20
-108.3722866
11
89.4013614
21
-125.7589514
0
LINE
8
0
10
89.4013614
20
-125.7589514
11
72.0146966
21
-121.1002086
0
LINE
8
0
10
72.0146966
20
-121.1002086
11
76.6734394
21
-103.7135438
0
LINE
8
0
10
81.5910012
20
-85.360953
11
98.977666
21
-90.0196958
0
LINE
8
0
10
98.977666
20
-90.0196958
11
94.3189232
21
-107.4063606
0
LINE
8
0
10
94.3189232
20
-107.4063606
11
76.9322584
21
-102.7476178
0
LINE
8
0
10
76.9322584
20
-102.7476178
11
81.5910012
21
-85.360953
0
LINE
8
0
10
93.2142967
20
-115.3925864
11
110.6009615
21
-120.0513292
0
LINE
8
0
10
110.6009615
20
-120.0513292
11
105.9422187
21
-137.437994
0
LINE
8
0
10
105.9422187
20
-137.437994
11
88.5555539
21
-132.7792512
0
LINE
8
0
10
88.5555539
20
-132.7792512
11
93.2142967
21
-115.3925864
0
LINE
8
0
10
98.1318586
20
-97.0399957
11
115.5185234
21
-101.6987385
0
LINE
8
0
10
115.5185234
20
-101.6987385
11
110.8597806
21
-119.0854033
0
LINE
8
0
10
110.8597806
20
-119.0854033
11
93.4731158
21
-114.4266605
0
LINE
8
0
10
93.4731158
20
-114.4266605
11
98.1318586
21
-97.0399957
0
LINE
8
0
10
103.0494204
20
-78.6874049
11
120.4360852
21
-83.3461477
0
LINE
8
0
10
120.4360852
20
-83.3461477
11
115.7773424
21
-100.7328125
0
LINE
8
0
10
115.7773424
20
-100.7328125
11
98.3906776
21
-96.0740697
0
LINE
8
0
10
98.3906776
20
-96.0740697
11
103.0494204
21
-78.6874049
0
LINE
8
0
10
112.8609826
20
-115.4805192
11
130.2476474
21
-120.139262
0
LINE
8
0
10
130.2476474
20
-120.139262
11
125.5889046
21
-137.5259268
0
LINE
8
0
10
125.5889046
20
-137.5259268
11
108.2022398
21
-132.867184
0
LINE
8
0
10
108.2022398
20
-132.867184
11
112.8609826
21
-115.4805192
0
LINE
8
0
10
117.7785445
20
-97.1279284
11
135.1652093
21
-101.7866712
0
LINE
8
0
10
135.1652093
20
-101.7866712
11
130.5064665
21
-119.173336
0
LINE
8
0
10
130.5064665
20
-119.173336
11
113.1198017
21
-114.5145932
0
LINE
8
0
10
113.1198017
20
-114.5145932
11
117.7785445
21
-97.1279284
0
LINE
8
0
10
122.6961064
20
-78.7753377
11
140.0827712
21
-83.4340805
0
LINE
8
0
10
140.0827712
20
-83.4340805
11
135.4240284
21
-100.8207453
0
LINE
8
0
10
135.4240284
20
-100.8207453
11
118.0373636
21
-96.1620025
0
LINE
8
0
10
118.0373636
20
-96.1620025
11
122.6961064
21
-78.7753377
0
LINE
8
0
10
129.660659
20
-126.193636
11
147.0473238
21
-130.8523788
0
LINE
8
0
10
147.0473238
20
-130.8523788
11
142.388581
21
-148.2390436
0
LINE
8
0
10
142.388581
20
-148.2390436
11
125.0019162
21
-143.5803008
0
LINE
8
0
10
125.0019162
20
-143.5803008
11
129.660659
21
-126.193636
0
LINE
8
0
10
134.5782209
20
-107.8410453
11
151.9648857
21
-112.4997881
0
LINE
8
0
10
151.9648857
20
-112.4997881
11
147.3061429
21
-129.8864529
0
LINE
8
0
10
147.3061429
20
-129.8864529
11
129.9194781
21
-125.2277101
0
LINE
8
0
10
129.9194781
20
-125.2277101
11
134.5782209
21
-107.8410453
0
LINE
8
0
10
139.4957828
20
-89.4884545
11
156.8824476
21
-94.1471973
0
LINE
8
0
10
156.8824476
20
-94.1471973
11
152.2237048
21
-111.5338621
0
LINE
8
0
10
152.2237048
20
-111.5338621
11
134.83704
21
-106.8751193
0
LINE
8
0
10
134.83704
20
-106.8751193
11
139.4957828
21
-89.4884545
0
LINE
8
0
10
147.4956116
20
-133.0430495
11
164.8822764
21
-137.7017923
0
LINE
8
0
10
164.8822764
20
-137.7017923
11
160.2235336
21
-155.0884571
0
LINE
8
0
10
160.2235336
20
-155.0884571
11
142.8368688
21
-150.4297143
0
LINE
8
0
10
142.8368688
20
-150.4297143
11
147.4956116
21
-133.0430495
0
LINE
8
0
10
152.4131735
20
-114.6904588
11
169.7998383
21
-119.3492016
0
LINE
8
0
10
169.7998383
20
-119.3492016
11
165.1410955
21
-136.7358664
0
LINE
8
0
10
165.1410955
20
-136.7358664
11
147.7544307
21
-132.0771236
0
LINE
8
0
10
147.7544307
20
-132.0771236
11
152.4131735
21
-114.6904588
0
LINE
8
0
10
157.3307354
20
-96.337868
11
174.7174002
21
-100.9966108
0
LINE
8
0
10
174.7174002
20
-100.9966108
11
170.0586574
21
-118.3832756
0
LINE
8
0
10
170.0586574
20
-118.3832756
11
152.6719926
21
-113.7245328
0
LINE
8
0
10
152.6719926
20
-113.7245328
11
157.3307354
21
-96.337868
0
LINE
8
0
10
112.6880072
20
-140.5394585
11
129.6024744
21
-146.6958211
0
LINE
8
0
10
129.6024744
20
-146.6958211
11
123.4461118
21
-163.6102883
0
LINE
8
0
10
123.4461118
20
-163.6102883
11
106.5316446
21
-157.4539257
0
LINE
8
0
10
106.5316446
20
-157.4539257
11
112.6880072
21
-140.5394585
0
LINE
8
0
10
134.7656882
20
-149.3836201
11
149.510425
21
-159.7079959
0
LINE
8
0
10
149.510425
20
-159.7079959
11
139.1860492
21
-174.4527327
0
LINE
8
0
10
139.1860492
20
-174.4527327
11
124.4413124
21
-164.1283569
0
LINE
8
0
10
124.4413124
20
-164.1283569
11
134.7656882
21
-149.3836201
0
LINE
8
0
10
153.802053
20
-163.6405484
11
165.37223
21
-177.4293484
0
LINE
8
0
10
165.37223
20
-177.4293484
11
151.58343
21
-188.9995254
0
LINE
8
0
10
151.58343
20
-188.9995254
11
140.013253
21
-175.2107254
0
LINE
8
0
10
140.013253
20
-175.2107254
11
153.802053
21
-163.6405484
0
LINE
8
0
10
168.3568974
20
-151.4275837
11
179.9270744
21
-165.2163837
0
LINE
8
0
10
179.9270744
20
-165.2163837
11
166.1382744
21
-176.7865607
0
LINE
8
0
10
166.1382744
20
-176.7865607
11
154.5680974
21
-162.9977607
0
LINE
8
0
10
154.5680974
20
-162.9977607
11
168.3568974
21
-151.4275837
0
LINE
8
0
10
168.4998047
20
-182.3386574
11
176.1069334
21
-198.6521975
0
LINE
8
0
10
176.1069334
20
-198.6521975
11
159.7933933
21
-206.2593262
0
LINE
8
0
10
159.7933933
20
-206.2593262
11
152.1862646
21
-189.9457861
0
LINE
8
0
10
152.1862646
20
-189.9457861
11
168.4998047
21
-182.3386574
0
LINE
8
0
10
185.7196526
20
-174.3089104
11
193.3267813
21
-190.6224505
0
LINE
8
0
10
193.3267813
20
-190.6224505
11
177.0132412
21
-198.2295792
0
LINE
8
0
10
177.0132412
20
-198.2295792
11
169.4061125
21
-181.9160391
0
LINE
8
0
10
169.4061125
20
-181.9160391
11
185.7196526
21
-174.3089104
0
LINE
8
0
10
316.9429423
20
-121.8073154
11
334.3296071
21
-117.1485726
0
LINE
8
0
10
334.3296071
20
-117.1485726
11
338.9883499
21
-134.5352374
0
LINE
8
0
10
338.9883499
20
-134.5352374
11
321.6016851
21
-139.1939802
0
LINE
8
0
10
321.6016851
20
-139.1939802
11
316.9429423
21
-121.8073154
0
LINE
8
0
10
312.0253804
20
-103.4547247
11
329.4120452
21
-98.7959819
0
LINE
8
0
10
329.4120452
20
-98.7959819
11
334.070788
21
-116.1826467
0
LINE
8
0
10
334.070788
20
-116.1826467
11
316.6841232
21
-120.8413895
0
LINE
8
0
10
316.6841232
20
-120.8413895
11
312.0253804
21
-103.4547247
0
LINE
8
0
10
307.1078185
20
-85.102134
11
324.4944833
21
-80.4433912
0
LINE
8
0
10
324.4944833
20
-80.4433912
11
329.1532261
21
-97.830056
0
LINE
8
0
10
329.1532261
20
-97.830056
11
311.7665613
21
-102.4887988
0
LINE
8
0
10
311.7665613
20
-102.4887988
11
307.1078185
21
-85.102134
0
LINE
8
0
10
298.5903515
20
-126.7248773
11
315.9770163
21
-122.0661345
0
LINE
8
0
10
315.9770163
20
-122.0661345
11
320.6357591
21
-139.4527993
0
LINE
8
0
10
320.6357591
20
-139.4527993
11
303.2490943
21
-144.1115421
0
LINE
8
0
10
303.2490943
20
-144.1115421
11
298.5903515
21
-126.7248773
0
LINE
8
0
10
293.6727896
20
-108.3722866
11
311.0594544
21
-103.7135438
0
LINE
8
0
10
311.0594544
20
-103.7135438
11
315.7181972
21
-121.1002086
0
LINE
8
0
10
315.7181972
20
-121.1002086
11
298.3315324
21
-125.7589514
0
LINE
8
0
10
298.3315324
20
-125.7589514
11
293.6727896
21
-108.3722866
0
LINE
8
0
10
288.7552278
20
-90.0196958
11
306.1418926
21
-85.360953
0
LINE
8
0
10
306.1418926
20
-85.360953
11
310.8006354
21
-102.7476178
0
LINE
8
0
10
310.8006354
20
-102.7476178
11
293.4139706
21
-107.4063606
0
LINE
8
0
10
293.4139706
20
-107.4063606
11
288.7552278
21
-90.0196958
0
LINE
8
0
10
277.1319323
20
-120.0513292
11
294.5185971
21
-115.3925864
0
LINE
8
0
10
294.5185971
20
-115.3925864
11
299.1773399
21
-132.7792512
0
LINE
8
0
10
299.1773399
20
-132.7792512
11
281.7906751
21
-137.437994
0
LINE
8
0
10
281.7906751
20
-137.437994
11
277.1319323
21
-120.0513292
0
LINE
8
0
10
272.2143704
20
-101.6987385
11
289.6010352
21
-97.0399957
0
LINE
8
0
10
289.6010352
20
-97.0399957
11
294.259778
21
-114.4266605
0
LINE
8
0
10
294.259778
20
-114.4266605
11
276.8731132
21
-119.0854033
0
LINE
8
0
10
276.8731132
20
-119.0854033
11
272.2143704
21
-101.6987385
0
LINE
8
0
10
267.2968086
20
-83.3461477
11
284.6834734
21
-78.6874049
0
LINE
8
0
10
284.6834734
20
-78.6874049
11
289.3422162
21
-96.0740697
0
LINE
8
0
10
289.3422162
20
-96.0740697
11
271.9555514
21
-100.7328125
0
LINE
8
0
10
271.9555514
20
-100.7328125
11
267.2968086
21
-83.3461477
0
LINE
8
0
10
257.4852464
20
-120.139262
11
274.8719112
21
-115.4805192
0
LINE
8
0
10
274.8719112
20
-115.4805192
11
279.530654
21
-132.867184
0
LINE
8
0
10
279.530654
20
-132.867184
11
262.1439892
21
-137.5259268
0
LINE
8
0
10
262.1439892
20
-137.5259268
11
257.4852464
21
-120.139262
0
LINE
8
0
10
252.5676845
20
-101.7866712
11
269.9543493
21
-97.1279284
0
LINE
8
0
10
269.9543493
20
-97.1279284
11
274.6130921
21
-114.5145932
0
LINE
8
0
10
274.6130921
20
-114.5145932
11
257.2264273
21
-119.173336
0
LINE
8
0
10
257.2264273
20
-119.173336
11
252.5676845
21
-101.7866712
0
LINE
8
0
10
247.6501226
20
-83.4340805
11
265.0367874
21
-78.7753377
0
LINE
8
0
10
265.0367874
20
-78.7753377
11
269.6955302
21
-96.1620025
0
LINE
8
0
10
269.6955302
20
-96.1620025
11
252.3088654
21
-100.8207453
0
LINE
8
0
10
252.3088654
20
-100.8207453
11
247.6501226
21
-83.4340805
0
LINE
8
0
10
240.68557
20
-130.8523788
11
258.0722348
21
-126.193636
0
LINE
8
0
10
258.0722348
20
-126.193636
11
262.7309776
21
-143.5803008
0
LINE
8
0
10
262.7309776
20
-143.5803008
11
245.3443128
21
-148.2390436
0
LINE
8
0
10
245.3443128
20
-148.2390436
11
240.68557
21
-130.8523788
0
LINE
8
0
10
235.7680081
20
-112.4997881
11
253.1546729
21
-107.8410453
0
LINE
8
0
10
253.1546729
20
-107.8410453
11
257.8134157
21
-125.2277101
0
LINE
8
0
10
257.8134157
20
-125.2277101
11
240.4267509
21
-129.8864529
0
LINE
8
0
10
240.4267509
20
-129.8864529
11
235.7680081
21
-112.4997881
0
LINE
8
0
10
230.8504462
20
-94.1471973
11
248.237111
21
-89.4884545
0
LINE
8
0
10
248.237111
20
-89.4884545
11
252.8958538
21
-106.8751193
0
LINE
8
0
10
252.8958538
20
-106.8751193
11
235.509189
21
-111.5338621
0
LINE
8
0
10
235.509189
20
-111.5338621
11
230.8504462
21
-94.1471973
0
LINE
8
0
10
222.8506174
20
-137.7017923
11
240.2372822
21
-133.0430495
0
LINE
8
0
10
240.2372822
20
-133.0430495
11
244.896025
21
-150.4297143
0
LINE
8
0
10
244.896025
20
-150.4297143
11
227.5093602
21
-155.0884571
0
LINE
8
0
10
227.5093602
20
-155.0884571
11
222.8506174
21
-137.7017923
0
LINE
8
0
10
217.9330555
20
-119.3492016
11
235.3197203
21
-114.6904588
0
LINE
8
0
10
235.3197203
20
-114.6904588
11
239.9784631
21
-132.0771236
0
LINE
8
0
10
239.9784631
20
-132.0771236
11
222.5917983
21
-136.7358664
0
LINE
8
0
10
222.5917983
20
-136.7358664
11
217.9330555
21
-119.3492016
0
LINE
8
0
10
213.0154936
20
-100.9966108
11
230.4021584
21
-96.337868
0
LINE
8
0
10
230.4021584
20
-96.337868
11
235.0609012
21
-113.7245328
0
LINE
8
0
10
235.0609012
20
-113.7245328
11
217.6742364
21
-118.3832756
0
LINE
8
0
10
217.6742364
20
-118.3832756
11
213.0154936
21
-100.9966108
0
LINE
8
0
10
258.1304194
20
-146.6958211
11
275.0448866
21
-140.5394585
0
LINE
8
0
10
275.0448866
20
-140.5394585
11
281.2012492
21
-157.4539257
0
LINE
8
0
10
281.2012492
20
-157.4539257
11
264.286782
21
-163.6102883
0
LINE
8
0
10
264.286782
20
-163.6102883
11
258.1304194
21
-146.6958211
0
LINE
8
0
10
238.2224688
20
-159.7079959
11
252.9672056
21
-149.3836201
0
LINE
8
0
10
252.9672056
20
-149.3836201
11
263.2915814
21
-164.1283569
0
LINE
8
0
10
263.2915814
20
-164.1283569
11
248.5468446
21
-174.4527327
0
LINE
8
0
10
248.5468446
20
-174.4527327
11
238.2224688
21
-159.7079959
0
LINE
8
0
10
222.3606638
20
-177.4293484
11
233.9308408
21
-163.6405484
0
LINE
8
0
10
233.9308408
20
-163.6405484
11
247.7196408
21
-175.2107254
0
LINE
8
0
10
247.7196408
20
-175.2107254
11
236.1494638
21
-188.9995254
0
LINE
8
0
10
236.1494638
20
-188.9995254
11
222.3606638
21
-177.4293484
0
LINE
8
0
10
207.8058194
20
-165.2163837
11
219.3759964
21
-151.4275837
0
LINE
8
0
10
219.3759964
20
-151.4275837
11
233.1647964
21
-162.9977607
0
LINE
8
0
10
233.1647964
20
-162.9977607
11
221.5946194
21
-176.7865607
0
LINE
8
0
10
221.5946194
20
-176.7865607
11
207.8058194
21
-165.2163837
0
LINE
8
0
10
211.6259604
20
-198.6521975
11
219.2330891
21
-182.3386574
0
LINE
8
0
10
219.2330891
20
-182.3386574
11
235.5466292
21
-189.9457861
0
LINE
8
0
10
235.5466292
20
-189.9457861
11
227.9395005
21
-206.2593262
0
LINE
8
0
10
227.9395005
20
-206.2593262
11
211.6259604
21
-198.6521975
0
LINE
8
0
10
194.4061125
20
-190.6224505
11
202.0132412
21
-174.3089104
0
LINE
8
0
10
202.0132412
20
-174.3089104
11
218.3267813
21
-181.9160391
0
LINE
8
0
10
218.3267813
20
-181.9160391
11
210.7196526
21
-198.2295792
0
LINE
8
0
10
210.7196526
20
-198.2295792
11
194.4061125
21
-190.6224505
0
ENDSEC
0
EOF