<?xml version="1.0" encoding="utf-8" ?>
<svg baseProfile="full" height="702.3210810140959" version="1.1" viewBox="170.92028908001947 361.6834578787984 1600.0 702.3210810140959" width="1600" xmlns="http://www.w3.org/2000/svg" xmlns:ev="http://www.w3.org/2001/xml-events" xmlns:xlink="http://www.w3.org/1999/xlink"><defs /><line stroke="black" stroke-width="0.199672876425" transform="scale(5.008191487518408,-5.008191487518408)" x1="50.0640232" x2="66.4847621" y1="-135.4064289" y2="-139.8063527" /><line stroke="black" stroke-width="0.199672876425" transform="scale(5.008191487518408,-5.008191487518408)" x1="48.6498095" x2="62.367219" y1="-132.9569392" y2="-81.7628705" /><line stroke="black" stroke-width="0.199672876425" transform="scale(5.008191487518408,-5.008191487518408)" x1="64.8167087" x2="97.6581869" y1="-80.3486568" y2="-89.1485043" /><line stroke="black" stroke-width="0.199672876425" transform="scale(5.008191487518408,-5.008191487518408)" x1="66.4847622" x2="82.9055013" y1="-139.8063527" y2="-144.2062765" /><line stroke="black" stroke-width="0.199672876425" transform="scale(5.008191487518408,-5.008191487518408)" x1="85.354991" x2="87.4255433" y1="-142.7920628" y2="-135.0646564" /><line stroke="black" stroke-width="0.199672876425" transform="scale(5.008191487518408,-5.008191487518408)" x1="89.875033" x2="104.3639205" y1="-133.6504427" y2="-137.5327284" /><line stroke="black" stroke-width="0.199672876425" transform="scale(5.008191487518408,-5.008191487518408)" x1="106.8134102" x2="107.0722292" y1="-136.1185147" y2="-135.1525892" /><line stroke="black" stroke-width="0.199672876425" transform="scale(5.008191487518408,-5.008191487518408)" x1="119.1166062" x2="104.6277186" y1="-82.4749562" y2="-78.5926705" /><line stroke="black" stroke-width="0.199672876425" transform="scale(5.008191487518408,-5.008191487518408)" x1="102.1782289" x2="100.1076766" y1="-80.0068842" y2="-87.7342906" /><line stroke="black" stroke-width="0.199672876425" transform="scale(5.008191487518408,-5.008191487518408)" x1="109.5217189" x2="124.0106063" y1="-133.7383755" y2="-137.6206612" /><line stroke="black" stroke-width="0.199672876425" transform="scale(5.008191487518408,-5.008191487518408)" x1="139.6598675" x2="140.1775056" y1="-86.9442302" y2="-85.0123789" /><line stroke="black" stroke-width="0.199672876425" transform="scale(5.008191487518408,-5.008191487518408)" x1="138.763292" x2="124.2744045" y1="-82.562889" y2="-78.6806033" /><line stroke="black" stroke-width="0.199672876425" transform="scale(5.008191487518408,-5.008191487518408)" x1="121.8249149" x2="121.5660958" y1="-80.0948168" y2="-81.0607427" /><line stroke="black" stroke-width="0.199672876425" transform="scale(5.008191487518408,-5.008191487518408)" x1="126.3213954" x2="142.7421344" y1="-144.4514923" y2="-148.8514161" /><line stroke="black" stroke-width="0.199672876425" transform="scale(5.008191487518408,-5.008191487518408)" x1="125.4248199" x2="124.9071818" y1="-140.0701511" y2="-142.0020024" /><line stroke="black" stroke-width="0.199672876425" transform="scale(5.008191487518408,-5.008191487518408)" x1="156.977182" x2="157.4948201" y1="-95.7254955" y2="-93.7936439" /><line stroke="black" stroke-width="0.199672876425" transform="scale(5.008191487518408,-5.008191487518408)" x1="157.4948201" x2="141.0740811" y1="-93.7936439" y2="-89.3937201" /><line stroke="black" stroke-width="0.199672876425" transform="scale(5.008191487518408,-5.008191487518408)" x1="142.2244963" x2="158.6452354" y1="-150.7832677" y2="-155.1831915" /><line stroke="black" stroke-width="0.199672876425" transform="scale(5.008191487518408,-5.008191487518408)" x1="161.0947251" x2="170.4122108" y1="-153.7689778" y2="-118.9956482" /><line stroke="black" stroke-width="0.199672876425" transform="scale(5.008191487518408,-5.008191487518408)" x1="142.7421344" x2="142.2244963" y1="-148.8514161" y2="-150.7832677" /><line stroke="black" stroke-width="0.199672876425" transform="scale(5.008191487518408,-5.008191487518408)" x1="170.4122108" x2="174.8121346" y1="-118.9956481" y2="-102.574909" /><line stroke="black" stroke-width="0.199672876425" transform="scale(5.008191487518408,-5.008191487518408)" x1="173.3979209" x2="156.977182" y1="-100.1254193" y2="-95.7254955" /><line stroke="black" stroke-width="0.199672876425" transform="scale(5.008191487518408,-5.008191487518408)" x1="107.7701735" x2="121.8655629" y1="-158.4368022" y2="-163.5671044" /><line stroke="black" stroke-width="0.199672876425" transform="scale(5.008191487518408,-5.008191487518408)" x1="124.4289883" x2="129.5592905" y1="-162.3717594" y2="-148.27637" /><line stroke="black" stroke-width="0.199672876425" transform="scale(5.008191487518408,-5.008191487518408)" x1="128.3639455" x2="114.2685561" y1="-145.7129446" y2="-140.5826424" /><line stroke="black" stroke-width="0.199672876425" transform="scale(5.008191487518408,-5.008191487518408)" x1="111.7051307" x2="106.5748285" y1="-141.7779874" y2="-155.8733768" /><line stroke="black" stroke-width="0.199672876425" transform="scale(5.008191487518408,-5.008191487518408)" x1="125.3832522" x2="137.6705329" y1="-165.3982976" y2="-174.0019441" /><line stroke="black" stroke-width="0.199672876425" transform="scale(5.008191487518408,-5.008191487518408)" x1="140.4559899" x2="149.0596364" y1="-173.5107929" y2="-161.2235122" /><line stroke="black" stroke-width="0.199672876425" transform="scale(5.008191487518408,-5.008191487518408)" x1="148.5684852" x2="136.2812045" y1="-158.4380552" y2="-149.8344087" /><line stroke="black" stroke-width="0.199672876425" transform="scale(5.008191487518408,-5.008191487518408)" x1="133.4957475" x2="124.892101" y1="-150.3255599" y2="-162.6128406" /><line stroke="black" stroke-width="0.199672876425" transform="scale(5.008191487518408,-5.008191487518408)" x1="140.5944122" x2="150.2362264" y1="-176.6811859" y2="-188.1718525" /><line stroke="black" stroke-width="0.199672876425" transform="scale(5.008191487518408,-5.008191487518408)" x1="153.0538905" x2="166.076646" y1="-188.4183662" y2="-177.4909768" /><line stroke="black" stroke-width="0.199672876425" transform="scale(5.008191487518408,-5.008191487518408)" x1="153.8636814" x2="140.8409259" y1="-162.9361324" y2="-173.8635218" /><line stroke="black" stroke-width="0.199672876425" transform="scale(5.008191487518408,-5.008191487518408)" x1="166.076646" x2="179.0994015" y1="-177.4909767" y2="-166.5635873" /><line stroke="black" stroke-width="0.199672876425" transform="scale(5.008191487518408,-5.008191487518408)" x1="179.3459152" x2="169.704101" y1="-163.7459232" y2="-152.2552566" /><line stroke="black" stroke-width="0.199672876425" transform="scale(5.008191487518408,-5.008191487518408)" x1="166.8864369" x2="153.8636814" y1="-152.0087429" y2="-162.9361323" /><line stroke="black" stroke-width="0.199672876425" transform="scale(5.008191487518408,-5.008191487518408)" x1="152.3670381" x2="158.706312" y1="-191.5165569" y2="-205.1111738" /><line stroke="black" stroke-width="0.199672876425" transform="scale(5.008191487518408,-5.008191487518408)" x1="161.3641641" x2="193.0212103" y1="-206.0785527" y2="-191.3166296" /><line stroke="black" stroke-width="0.199672876425" transform="scale(5.008191487518408,-5.008191487518408)" x1="153.334417" x2="184.1488818" y1="-188.8587048" y2="-174.4896839" /><line stroke="black" stroke-width="0.199672876425" transform="scale(5.008191487518408,-5.008191487518408)" x1="192.0538313" x2="186.8067339" y1="-186.7094996" y2="-175.4570628" /><line stroke="black" stroke-width="0.199672876425" transform="scale(5.008191487518408,-5.008191487518408)" x1="321.2481317" x2="337.6688706" y1="-139.8063527" y2="-135.4064289" /><line stroke="black" stroke-width="0.199672876425" transform="scale(5.008191487518408,-5.008191487518408)" x1="325.3656748" x2="339.0830843" y1="-81.7628705" y2="-132.9569392" /><line stroke="black" stroke-width="0.199672876425" transform="scale(5.008191487518408,-5.008191487518408)" x1="290.0747069" x2="322.9161851" y1="-89.1485043" y2="-80.3486568" /><line stroke="black" stroke-width="0.199672876425" transform="scale(5.008191487518408,-5.008191487518408)" x1="304.8273925" x2="321.2481316" y1="-144.2062765" y2="-139.8063527" /><line stroke="black" stroke-width="0.199672876425" transform="scale(5.008191487518408,-5.008191487518408)" x1="300.3073505" x2="302.3779028" y1="-135.0646564" y2="-142.7920628" /><line stroke="black" stroke-width="0.199672876425" transform="scale(5.008191487518408,-5.008191487518408)" x1="283.3689733" x2="297.8578608" y1="-137.5327284" y2="-133.6504427" /><line stroke="black" stroke-width="0.199672876425" transform="scale(5.008191487518408,-5.008191487518408)" x1="280.6606646" x2="280.9194836" y1="-135.1525892" y2="-136.1185147" /><line stroke="black" stroke-width="0.199672876425" transform="scale(5.008191487518408,-5.008191487518408)" x1="287.6252172" x2="285.5546649" y1="-87.7342906" y2="-80.0068842" /><line stroke="black" stroke-width="0.199672876425" transform="scale(5.008191487518408,-5.008191487518408)" x1="283.1051752" x2="268.6162876" y1="-78.5926705" y2="-82.4749562" /><line stroke="black" stroke-width="0.199672876425" transform="scale(5.008191487518408,-5.008191487518408)" x1="263.7222875" x2="278.2111749" y1="-137.6206612" y2="-133.7383755" /><line stroke="black" stroke-width="0.199672876425" transform="scale(5.008191487518408,-5.008191487518408)" x1="266.166798" x2="265.9079789" y1="-81.0607427" y2="-80.0948168" /><line stroke="black" stroke-width="0.199672876425" transform="scale(5.008191487518408,-5.008191487518408)" x1="263.4584893" x2="248.9696018" y1="-78.6806033" y2="-82.562889" /><line stroke="black" stroke-width="0.199672876425" transform="scale(5.008191487518408,-5.008191487518408)" x1="247.5553882" x2="248.0730263" y1="-85.0123789" y2="-86.9442302" /><line stroke="black" stroke-width="0.199672876425" transform="scale(5.008191487518408,-5.008191487518408)" x1="244.9907594" x2="261.4114984" y1="-148.8514161" y2="-144.4514923" /><line stroke="black" stroke-width="0.199672876425" transform="scale(5.008191487518408,-5.008191487518408)" x1="262.825712" x2="262.3080739" y1="-142.0020024" y2="-140.0701511" /><line stroke="black" stroke-width="0.199672876425" transform="scale(5.008191487518408,-5.008191487518408)" x1="246.6588127" x2="230.2380737" y1="-89.3937201" y2="-93.7936439" /><line stroke="black" stroke-width="0.199672876425" transform="scale(5.008191487518408,-5.008191487518408)" x1="230.2380737" x2="230.7557118" y1="-93.7936439" y2="-95.7254955" /><line stroke="black" stroke-width="0.199672876425" transform="scale(5.008191487518408,-5.008191487518408)" x1="229.0876584" x2="245.5083975" y1="-155.1831915" y2="-150.7832677" /><line stroke="black" stroke-width="0.199672876425" transform="scale(5.008191487518408,-5.008191487518408)" x1="245.5083975" x2="244.9907594" y1="-150.7832677" y2="-148.8514161" /><line stroke="black" stroke-width="0.199672876425" transform="scale(5.008191487518408,-5.008191487518408)" x1="217.320683" x2="226.6381687" y1="-118.9956482" y2="-153.7689778" /><line stroke="black" stroke-width="0.199672876425" transform="scale(5.008191487518408,-5.008191487518408)" x1="230.7557118" x2="214.3349729" y1="-95.7254955" y2="-100.1254193" /><line stroke="black" stroke-width="0.199672876425" transform="scale(5.008191487518408,-5.008191487518408)" x1="212.9207592" x2="217.320683" y1="-102.574909" y2="-118.9956481" /><line stroke="black" stroke-width="0.199672876425" transform="scale(5.008191487518408,-5.008191487518408)" x1="265.8673309" x2="279.9627203" y1="-163.5671044" y2="-158.4368022" /><line stroke="black" stroke-width="0.199672876425" transform="scale(5.008191487518408,-5.008191487518408)" x1="281.1580653" x2="276.0277631" y1="-155.8733768" y2="-141.7779874" /><line stroke="black" stroke-width="0.199672876425" transform="scale(5.008191487518408,-5.008191487518408)" x1="273.4643377" x2="259.3689483" y1="-140.5826424" y2="-145.7129446" /><line stroke="black" stroke-width="0.199672876425" transform="scale(5.008191487518408,-5.008191487518408)" x1="258.1736033" x2="263.3039055" y1="-148.27637" y2="-162.3717594" /><line stroke="black" stroke-width="0.199672876425" transform="scale(5.008191487518408,-5.008191487518408)" x1="250.0623609" x2="262.3496416" y1="-174.0019441" y2="-165.3982976" /><line stroke="black" stroke-width="0.199672876425" transform="scale(5.008191487518408,-5.008191487518408)" x1="262.8407928" x2="254.2371463" y1="-162.6128406" y2="-150.3255599" /><line stroke="black" stroke-width="0.199672876425" transform="scale(5.008191487518408,-5.008191487518408)" x1="251.4516893" x2="239.1644086" y1="-149.8344087" y2="-158.4380552" /><line stroke="black" stroke-width="0.199672876425" transform="scale(5.008191487518408,-5.008191487518408)" x1="238.6732574" x2="247.2769039" y1="-161.2235122" y2="-173.5107929" /><line stroke="black" stroke-width="0.199672876425" transform="scale(5.008191487518408,-5.008191487518408)" x1="237.4966674" x2="247.1384816" y1="-188.1718525" y2="-176.6811859" /><line stroke="black" stroke-width="0.199672876425" transform="scale(5.008191487518408,-5.008191487518408)" x1="246.8919679" x2="233.8692124" y1="-173.8635218" y2="-162.9361324" /><line stroke="black" stroke-width="0.199672876425" transform="scale(5.008191487518408,-5.008191487518408)" x1="221.6562478" x2="234.6790033" y1="-177.4909768" y2="-188.4183662" /><line stroke="black" stroke-width="0.199672876425" transform="scale(5.008191487518408,-5.008191487518408)" x1="233.8692124" x2="220.8464569" y1="-162.9361323" y2="-152.0087429" /><line stroke="black" stroke-width="0.199672876425" transform="scale(5.008191487518408,-5.008191487518408)" x1="218.0287928" x2="208.3869786" y1="-152.2552566" y2="-163.7459232" /><line stroke="black" stroke-width="0.199672876425" transform="scale(5.008191487518408,-5.008191487518408)" x1="208.6334923" x2="221.6562478" y1="-166.5635873" y2="-177.4909767" /><line stroke="black" stroke-width="0.199672876425" transform="scale(5.008191487518408,-5.008191487518408)" x1="229.0265818" x2="235.3658557" y1="-205.1111738" y2="-191.5165569" /><line stroke="black" stroke-width="0.199672876425" transform="scale(5.008191487518408,-5.008191487518408)" x1="203.584012" x2="234.3984768" y1="-174.4896839" y2="-188.8587048" /><line stroke="black" stroke-width="0.199672876425" transform="scale(5.008191487518408,-5.008191487518408)" x1="194.7116835" x2="226.3687297" y1="-191.3166296" y2="-206.0785527" /><line stroke="black" stroke-width="0.199672876425" transform="scale(5.008191487518408,-5.008191487518408)" x1="200.9261599" x2="195.6790625" y1="-175.4570628" y2="-186.7094996" /><circle cx="337.1512326" cy="-133.4745772" fill="none" r="2.0" stroke="black" stroke-width="0.199672876425" transform="scale(5.008191487518408,-5.008191487518408)" /><circle cx="323.4338231" cy="-82.2805085" fill="none" r="2.0" stroke="black" stroke-width="0.199672876425" transform="scale(5.008191487518408,-5.008191487518408)" /><circle cx="289.5570689" cy="-87.2166526" fill="none" r="2.0" stroke="black" stroke-width="0.199672876425" transform="scale(5.008191487518408,-5.008191487518408)" /><circle cx="283.6228132" cy="-80.5245222" fill="none" r="2.0" stroke="black" stroke-width="0.199672876425" transform="scale(5.008191487518408,-5.008191487518408)" /><circle cx="268.0986496" cy="-80.5431045" fill="none" r="2.0" stroke="black" stroke-width="0.199672876425" transform="scale(5.008191487518408,-5.008191487518408)" /><circle cx="263.9761273" cy="-80.612455" fill="none" r="2.0" stroke="black" stroke-width="0.199672876425" transform="scale(5.008191487518408,-5.008191487518408)" /><circle cx="249.4872398" cy="-84.4947407" fill="none" r="2.0" stroke="black" stroke-width="0.199672876425" transform="scale(5.008191487518408,-5.008191487518408)" /><circle cx="246.1411747" cy="-87.4618684" fill="none" r="2.0" stroke="black" stroke-width="0.199672876425" transform="scale(5.008191487518408,-5.008191487518408)" /><circle cx="214.8526109" cy="-102.057271" fill="none" r="2.0" stroke="black" stroke-width="0.199672876425" transform="scale(5.008191487518408,-5.008191487518408)" /><circle cx="228.5700204" cy="-153.2513398" fill="none" r="2.0" stroke="black" stroke-width="0.199672876425" transform="scale(5.008191487518408,-5.008191487518408)" /><circle cx="260.8938604" cy="-142.5196406" fill="none" r="2.0" stroke="black" stroke-width="0.199672876425" transform="scale(5.008191487518408,-5.008191487518408)" /><circle cx="264.2399255" cy="-139.5525129" fill="none" r="2.0" stroke="black" stroke-width="0.199672876425" transform="scale(5.008191487518408,-5.008191487518408)" /><circle cx="278.7288129" cy="-135.6702272" fill="none" r="2.0" stroke="black" stroke-width="0.199672876425" transform="scale(5.008191487518408,-5.008191487518408)" /><circle cx="282.8513353" cy="-135.6008767" fill="none" r="2.0" stroke="black" stroke-width="0.199672876425" transform="scale(5.008191487518408,-5.008191487518408)" /><circle cx="298.3754988" cy="-135.5822944" fill="none" r="2.0" stroke="black" stroke-width="0.199672876425" transform="scale(5.008191487518408,-5.008191487518408)" /><circle cx="304.3097545" cy="-142.2744248" fill="none" r="2.0" stroke="black" stroke-width="0.199672876425" transform="scale(5.008191487518408,-5.008191487518408)" /><circle cx="83.4231393" cy="-142.2744248" fill="none" r="2.0" stroke="black" stroke-width="0.199672876425" transform="scale(5.008191487518408,-5.008191487518408)" /><circle cx="89.357395" cy="-135.5822944" fill="none" r="2.0" stroke="black" stroke-width="0.199672876425" transform="scale(5.008191487518408,-5.008191487518408)" /><circle cx="104.8815585" cy="-135.6008767" fill="none" r="2.0" stroke="black" stroke-width="0.199672876425" transform="scale(5.008191487518408,-5.008191487518408)" /><circle cx="109.0040809" cy="-135.6702272" fill="none" r="2.0" stroke="black" stroke-width="0.199672876425" transform="scale(5.008191487518408,-5.008191487518408)" /><circle cx="123.4929683" cy="-139.5525129" fill="none" r="2.0" stroke="black" stroke-width="0.199672876425" transform="scale(5.008191487518408,-5.008191487518408)" /><circle cx="126.8390334" cy="-142.5196406" fill="none" r="2.0" stroke="black" stroke-width="0.199672876425" transform="scale(5.008191487518408,-5.008191487518408)" /><circle cx="159.1628734" cy="-153.2513398" fill="none" r="2.0" stroke="black" stroke-width="0.199672876425" transform="scale(5.008191487518408,-5.008191487518408)" /><circle cx="172.8802829" cy="-102.057271" fill="none" r="2.0" stroke="black" stroke-width="0.199672876425" transform="scale(5.008191487518408,-5.008191487518408)" /><circle cx="141.5917191" cy="-87.4618684" fill="none" r="2.0" stroke="black" stroke-width="0.199672876425" transform="scale(5.008191487518408,-5.008191487518408)" /><circle cx="138.245654" cy="-84.4947407" fill="none" r="2.0" stroke="black" stroke-width="0.199672876425" transform="scale(5.008191487518408,-5.008191487518408)" /><circle cx="123.7567665" cy="-80.612455" fill="none" r="2.0" stroke="black" stroke-width="0.199672876425" transform="scale(5.008191487518408,-5.008191487518408)" /><circle cx="119.6342442" cy="-80.5431045" fill="none" r="2.0" stroke="black" stroke-width="0.199672876425" transform="scale(5.008191487518408,-5.008191487518408)" /><circle cx="104.1100806" cy="-80.5245222" fill="none" r="2.0" stroke="black" stroke-width="0.199672876425" transform="scale(5.008191487518408,-5.008191487518408)" /><circle cx="98.1758249" cy="-87.2166526" fill="none" r="2.0" stroke="black" stroke-width="0.199672876425" transform="scale(5.008191487518408,-5.008191487518408)" /><circle cx="64.2990707" cy="-82.2805085" fill="none" r="2.0" stroke="black" stroke-width="0.199672876425" transform="scale(5.008191487518408,-5.008191487518408)" /><circle cx="50.5816612" cy="-133.4745772" fill="none" r="2.0" stroke="black" stroke-width="0.199672876425" transform="scale(5.008191487518408,-5.008191487518408)" /><circle cx="160.5189276" cy="-204.2659372" fill="none" r="2.0" stroke="black" stroke-width="0.199672876425" transform="scale(5.008191487518408,-5.008191487518408)" /><circle cx="193.8664469" cy="-193.1292452" fill="none" r="2.0" stroke="black" stroke-width="0.199672876425" transform="scale(5.008191487518408,-5.008191487518408)" /><circle cx="227.2139662" cy="-204.2659372" fill="none" r="2.0" stroke="black" stroke-width="0.199672876425" transform="scale(5.008191487518408,-5.008191487518408)" /><circle cx="233.5532402" cy="-190.6713204" fill="none" r="2.0" stroke="black" stroke-width="0.199672876425" transform="scale(5.008191487518408,-5.008191487518408)" /><circle cx="202.7387755" cy="-176.3022994" fill="none" r="2.0" stroke="black" stroke-width="0.199672876425" transform="scale(5.008191487518408,-5.008191487518408)" /><circle cx="193.8664469" cy="-185.864263" fill="none" r="2.0" stroke="black" stroke-width="0.199672876425" transform="scale(5.008191487518408,-5.008191487518408)" /><circle cx="184.9941183" cy="-176.3022994" fill="none" r="2.0" stroke="black" stroke-width="0.199672876425" transform="scale(5.008191487518408,-5.008191487518408)" /><circle cx="154.1796536" cy="-190.6713204" fill="none" r="2.0" stroke="black" stroke-width="0.199672876425" transform="scale(5.008191487518408,-5.008191487518408)" /><circle cx="151.7683153" cy="-186.8862773" fill="none" r="2.0" stroke="black" stroke-width="0.199672876425" transform="scale(5.008191487518408,-5.008191487518408)" /><circle cx="177.8138263" cy="-165.0314984" fill="none" r="2.0" stroke="black" stroke-width="0.199672876425" transform="scale(5.008191487518408,-5.008191487518408)" /><circle cx="168.1720121" cy="-153.5408318" fill="none" r="2.0" stroke="black" stroke-width="0.199672876425" transform="scale(5.008191487518408,-5.008191487518408)" /><circle cx="142.1265011" cy="-175.3956107" fill="none" r="2.0" stroke="black" stroke-width="0.199672876425" transform="scale(5.008191487518408,-5.008191487518408)" /><circle cx="245.6063927" cy="-175.3956107" fill="none" r="2.0" stroke="black" stroke-width="0.199672876425" transform="scale(5.008191487518408,-5.008191487518408)" /><circle cx="219.5608817" cy="-153.5408318" fill="none" r="2.0" stroke="black" stroke-width="0.199672876425" transform="scale(5.008191487518408,-5.008191487518408)" /><circle cx="209.9190675" cy="-165.0314984" fill="none" r="2.0" stroke="black" stroke-width="0.199672876425" transform="scale(5.008191487518408,-5.008191487518408)" /><circle cx="235.9645785" cy="-186.8862773" fill="none" r="2.0" stroke="black" stroke-width="0.199672876425" transform="scale(5.008191487518408,-5.008191487518408)" /><circle cx="261.2024887" cy="-163.7599935" fill="none" r="2.0" stroke="black" stroke-width="0.199672876425" transform="scale(5.008191487518408,-5.008191487518408)" /><circle cx="252.5988422" cy="-151.4727128" fill="none" r="2.0" stroke="black" stroke-width="0.199672876425" transform="scale(5.008191487518408,-5.008191487518408)" /><circle cx="240.3115615" cy="-160.0763593" fill="none" r="2.0" stroke="black" stroke-width="0.199672876425" transform="scale(5.008191487518408,-5.008191487518408)" /><circle cx="248.915208" cy="-172.36364" fill="none" r="2.0" stroke="black" stroke-width="0.199672876425" transform="scale(5.008191487518408,-5.008191487518408)" /><circle cx="138.8176858" cy="-172.36364" fill="none" r="2.0" stroke="black" stroke-width="0.199672876425" transform="scale(5.008191487518408,-5.008191487518408)" /><circle cx="147.4213323" cy="-160.0763593" fill="none" r="2.0" stroke="black" stroke-width="0.199672876425" transform="scale(5.008191487518408,-5.008191487518408)" /><circle cx="135.1340516" cy="-151.4727128" fill="none" r="2.0" stroke="black" stroke-width="0.199672876425" transform="scale(5.008191487518408,-5.008191487518408)" /><circle cx="126.5304051" cy="-163.7599935" fill="none" r="2.0" stroke="black" stroke-width="0.199672876425" transform="scale(5.008191487518408,-5.008191487518408)" /><circle cx="122.5496031" cy="-161.6877192" fill="none" r="2.0" stroke="black" stroke-width="0.199672876425" transform="scale(5.008191487518408,-5.008191487518408)" /><circle cx="127.6799053" cy="-147.5923298" fill="none" r="2.0" stroke="black" stroke-width="0.199672876425" transform="scale(5.008191487518408,-5.008191487518408)" /><circle cx="113.5845159" cy="-142.4620276" fill="none" r="2.0" stroke="black" stroke-width="0.199672876425" transform="scale(5.008191487518408,-5.008191487518408)" /><circle cx="108.4542137" cy="-156.557417" fill="none" r="2.0" stroke="black" stroke-width="0.199672876425" transform="scale(5.008191487518408,-5.008191487518408)" /><circle cx="279.2786801" cy="-156.557417" fill="none" r="2.0" stroke="black" stroke-width="0.199672876425" transform="scale(5.008191487518408,-5.008191487518408)" /><circle cx="274.1483779" cy="-142.4620276" fill="none" r="2.0" stroke="black" stroke-width="0.199672876425" transform="scale(5.008191487518408,-5.008191487518408)" /><circle cx="260.0529885" cy="-147.5923298" fill="none" r="2.0" stroke="black" stroke-width="0.199672876425" transform="scale(5.008191487518408,-5.008191487518408)" /><circle cx="265.1832907" cy="-161.6877192" fill="none" r="2.0" stroke="black" stroke-width="0.199672876425" transform="scale(5.008191487518408,-5.008191487518408)" /></svg>