0
SECTION
2
HEADER
9
$INSUNITS
70
4
0
ENDSEC
0
SECTION
2
TABLES
0
TABLE
2
LTYPE
0
LTYPE
72
65
70
64
2
CONTINUOUS
3
______
73
0
40
0
0
ENDTAB
0
TABLE
2
LAYER
0
ENDTAB
0
ENDSEC
0
SECTION
2
ENTITIES
0
LINE
8
0
10
50.0640232
20
-135.4064289
11
66.4847621
21
-139.8063527
0
LINE
8
0
10
48.6498095
20
-132.9569392
11
62.367219
21
-81.7628705
0
LINE
8
0
10
64.8167087
20
-80.3486568
11
97.6581869
21
-89.1485043
0
LINE
8
0
10
66.4847622
20
-139.8063527
11
82.9055013
21
-144.2062765
0
LINE
8
0
10
85.354991
20
-142.7920628
11
87.4255433
21
-135.0646564
0
LINE
8
0
10
89.875033
20
-133.6504427
11
104.3639205
21
-137.5327284
0
LINE
8
0
10
106.8134102
20
-136.1185147
11
107.0722292
21
-135.1525892
0
LINE
8
0
10
119.1166062
20
-82.4749562
11
104.6277186
21
-78.5926705
0
LINE
8
0
10
102.1782289
20
-80.0068842
11
100.1076766
21
-87.7342906
0
LINE
8
0
10
109.5217189
20
-133.7383755
11
124.0106063
21
-137.6206612
0
LINE
8
0
10
139.6598675
20
-86.9442302
11
140.1775056
21
-85.0123789
0
LINE
8
0
10
138.763292
20
-82.562889
11
124.2744045
21
-78.6806033
0
LINE
8
0
10
121.8249149
20
-80.0948168
11
121.5660958
21
-81.0607427
0
LINE
8
0
10
126.3213954
20
-144.4514923
11
142.7421344
21
-148.8514161
0
LINE
8
0
10
125.4248199
20
-140.0701511
11
124.9071818
21
-142.0020024
0
LINE
8
0
10
156.977182
20
-95.7254955
11
157.4948201
21
-93.7936439
0
LINE
8
0
10
157.4948201
20
-93.7936439
11
141.0740811
21
-89.3937201
0
LINE
8
0
10
142.2244963
20
-150.7832677
11
158.6452354
21
-155.1831915
0
LINE
8
0
10
161.0947251
20
-153.7689778
11
170.4122108
21
-118.9956482
0
LINE
8
0
10
142.7421344
20
-148.8514161
11
142.2244963
21
-150.7832677
0
LINE
8
0
10
170.4122108
20
-118.9956481
11
174.8121346
21
-102.574909
0
LINE
8
0
10
173.3979209
20
-100.1254193
11
156.977182
21
-95.7254955
0
LINE
8
0
10
107.7701735
20
-158.4368022
11
121.8655629
21
-163.5671044
0
LINE
8
0
10
124.4289883
20
-162.3717594
11
129.5592905
21
-148.27637
0
LINE
8
0
10
128.3639455
20
-145.7129446
11
114.2685561
21
-140.5826424
0
LINE
8
0
10
111.7051307
20
-141.7779874
11
106.5748285
21
-155.8733768
0
LINE
8
0
10
125.3832522
20
-165.3982976
11
137.6705329
21
-174.0019441
0
LINE
8
0
10
140.4559899
20
-173.5107929
11
149.0596364
21
-161.2235122
0
LINE
8
0
10
148.5684852
20
-158.4380552
11
136.2812045
21
-149.8344087
0
LINE
8
0
10
133.4957475
20
-150.3255599
11
124.892101
21
-162.6128406
0
LINE
8
0
10
140.5944122
20
-176.6811859
11
150.2362264
21
-188.1718525
0
LINE
8
0
10
153.0538905
20
-188.4183662
11
166.076646
21
-177.4909768
0
LINE
8
0
10
153.8636814
20
-162.9361324
11
140.8409259
21
-173.8635218
0
LINE
8
0
10
166.076646
20
-177.4909767
11
179.0994015
21
-166.5635873
0
LINE
8
0
10
179.3459152
20
-163.7459232
11
169.704101
21
-152.2552566
0
LINE
8
0
10
166.8864369
20
-152.0087429
11
153.8636814
21
-162.9361323
0
LINE
8
0
10
152.3670381
20
-191.5165569
11
158.706312
21
-205.1111738
0
LINE
8
0
10
161.3641641
20
-206.0785527
11
193.0212103
21
-191.3166296
0
LINE
8
0
10
153.334417
20
-188.8587048
11
184.1488818
21
-174.4896839
0
LINE
8
0
10
192.0538313
20
-186.7094996
11
186.8067339
21
-175.4570628
0
LINE
8
0
10
321.2481317
20
-139.8063527
11
337.6688706
21
-135.4064289
0
LINE
8
0
10
325.3656748
20
-81.7628705
11
339.0830843
21
-132.9569392
0
LINE
8
0
10
290.0747069
20
-89.1485043
11
322.9161851
21
-80.3486568
0
LINE
8
0
10
304.8273925
20
-144.2062765
11
321.2481316
21
-139.8063527
0
LINE
8
0
10
300.3073505
20
-135.0646564
11
302.3779028
21
-142.7920628
0
LINE
8
0
10
283.3689733
20
-137.5327284
11
297.8578608
21
-133.6504427
0
LINE
8
0
10
280.6606646
20
-135.1525892
11
280.9194836
21
-136.1185147
0
LINE
8
0
10
287.6252172
20
-87.7342906
11
285.5546649
21
-80.0068842
0
LINE
8
0
10
283.1051752
20
-78.5926705
11
268.6162876
21
-82.4749562
0
LINE
8
0
10
263.7222875
20
-137.6206612
11
278.2111749
21
-133.7383755
0
LINE
8
0
10
266.166798
20
-81.0607427
11
265.9079789
21
-80.0948168
0
LINE
8
0
10
263.4584893
20
-78.6806033
11
248.9696018
21
-82.562889
0
LINE
8
0
10
247.5553882
20
-85.0123789
11
248.0730263
21
-86.9442302
0
LINE
8
0
10
244.9907594
20
-148.8514161
11
261.4114984
21
-144.4514923
0
LINE
8
0
10
262.825712
20
-142.0020024
11
262.3080739
21
-140.0701511
0
LINE
8
0
10
246.6588127
20
-89.3937201
11
230.2380737
21
-93.7936439
0
LINE
8
0
10
230.2380737
20
-93.7936439
11
230.7557118
21
-95.7254955
0
LINE
8
0
10
229.0876584
20
-155.1831915
11
245.5083975
21
-150.7832677
0
LINE
8
0
10
245.5083975
20
-150.7832677
11
244.9907594
21
-148.8514161
0
LINE
8
0
10
217.320683
20
-118.9956482
11
226.6381687
21
-153.7689778
0
LINE
8
0
10
230.7557118
20
-95.7254955
11
214.3349729
21
-100.1254193
0
LINE
8
0
10
212.9207592
20
-102.574909
11
217.320683
21
-118.9956481
0
LINE
8
0
10
265.8673309
20
-163.5671044
11
279.9627203
21
-158.4368022
0
LINE
8
0
10
281.1580653
20
-155.8733768
11
276.0277631
21
-141.7779874
0
LINE
8
0
10
273.4643377
20
-140.5826424
11
259.3689483
21
-145.7129446
0
LINE
8
0
10
258.1736033
20
-148.27637
11
263.3039055
21
-162.3717594
0
LINE
8
0
10
250.0623609
20
-174.0019441
11
262.3496416
21
-165.3982976
0
LINE
8
0
10
262.8407928
20
-162.6128406
11
254.2371463
21
-150.3255599
0
LINE
8
0
10
251.4516893
20
-149.8344087
11
239.1644086
21
-158.4380552
0
LINE
8
0
10
238.6732574
20
-161.2235122
11
247.2769039
21
-173.5107929
0
LINE
8
0
10
237.4966674
20
-188.1718525
11
247.1384816
21
-176.6811859
0
LINE
8
0
10
246.8919679
20
-173.8635218
11
233.8692124
21
-162.9361324
0
LINE
8
0
10
221.6562478
20
-177.4909768
11
234.6790033
21
-188.4183662
0
LINE
8
0
10
233.8692124
20
-162.9361323
11
220.8464569
21
-152.0087429
0
LINE
8
0
10
218.0287928
20
-152.2552566
11
208.3869786
21
-163.7459232
0
LINE
8
0
10
208.6334923
20
-166.5635873
11
221.6562478
21
-177.4909767
0
LINE
8
0
10
229.0265818
20
-205.1111738
11
235.3658557
21
-191.5165569
0
LINE
8
0
10
203.584012
20
-174.4896839
11
234.3984768
21
-188.8587048
0
LINE
8
0
10
194.7116835
20
-191.3166296
11
226.3687297
21
-206.0785527
0
LINE
8
0
10
200.9261599
20
-175.4570628
11
195.6790625
21
-186.7094996
0
ARC
8
0
10
337.1512326
20
-133.4745772
40
2
50
284.9999979
51
14.9999979
0
ARC
8
0
10
323.4338231
20
-82.2805085
40
2
50
14.9999979
51
104.9999979
0
ARC
8
0
10
289.5570689
20
-87.2166526
40
2
50
194.9999979
51
284.9999979
0
ARC
8
0
10
283.6228132
20
-80.5245222
40
2
50
14.9999979
51
104.9999979
0
ARC
8
0
10
268.0986496
20
-80.5431045
40
2
50
195.0000034
51
284.9999979
0
ARC
8
0
10
263.9761273
20
-80.612455
40
2
50
15.0000034
51
104.9999979
0
ARC
8
0
10
249.4872398
20
-84.4947407
40
2
50
104.9999979
51
195.0000034
0
ARC
8
0
10
246.1411747
20
-87.4618684
40
2
50
284.9999979
51
15.0000034
0
ARC
8
0
10
214.8526109
20
-102.057271
40
2
50
104.9999979
51
194.9999979
0
ARC
8
0
10
228.5700204
20
-153.2513398
40
2
50
194.9999979
51
284.9999979
0
ARC
8
0
10
260.8938604
20
-142.5196406
40
2
50
284.9999979
51
15.0000034
0
ARC
8
0
10
264.2399255
20
-139.5525129
40
2
50
104.9999979
51
195.0000034
0
ARC
8
0
10
278.7288129
20
-135.6702272
40
2
50
14.9999979
51
104.9999979
0
ARC
8
0
10
282.8513353
20
-135.6008767
40
2
50
194.9999979
51
284.9999979
0
ARC
8
0
10
298.3754988
20
-135.5822944
40
2
50
14.9999979
51
104.9999979
0
ARC
8
0
10
304.3097545
20
-142.2744248
40
2
50
194.9999979
51
284.9999979
0
ARC
8
0
10
83.4231393
20
-142.2744248
40
2
50
255.0000021
51
345.0000021
0
ARC
8
0
10
89.357395
20
-135.5822944
40
2
50
75.0000021
51
165.0000021
0
ARC
8
0
10
104.8815585
20
-135.6008767
40
2
50
255.0000021
51
345.0000021
0
ARC
8
0
10
109.0040809
20
-135.6702272
40
2
50
75.0000021
51
165.0000021
0
ARC
8
0
10
123.4929683
20
-139.5525129
40
2
50
344.9999966
51
75.0000021
0
ARC
8
0
10
126.8390334
20
-142.5196406
40
2
50
164.9999966
51
255.0000021
0
ARC
8
0
10
159.1628734
20
-153.2513398
40
2
50
255.0000021
51
345.0000021
0
ARC
8
0
10
172.8802829
20
-102.057271
40
2
50
345.0000021
51
75.0000021
0
ARC
8
0
10
141.5917191
20
-87.4618684
40
2
50
164.9999966
51
255.0000021
0
ARC
8
0
10
138.245654
20
-84.4947407
40
2
50
344.9999966
51
75.0000021
0
ARC
8
0
10
123.7567665
20
-80.612455
40
2
50
75.0000021
51
164.9999966
0
ARC
8
0
10
119.6342442
20
-80.5431045
40
2
50
255.0000021
51
344.9999966
0
ARC
8
0
10
104.1100806
20
-80.5245222
40
2
50
75.0000021
51
165.0000021
0
ARC
8
0
10
98.1758249
20
-87.2166526
40
2
50
255.0000021
51
345.0000021
0
ARC
8
0
10
64.2990707
20
-82.2805085
40
2
50
75.0000021
51
165.0000021
0
ARC
8
0
10
50.5816612
20
-133.4745772
40
2
50
165.0000021
51
255.0000021
0
ARC
8
0
10
160.5189276
20
-204.2659372
40
2
50
205.0000017
51
295.0000017
0
ARC
8
0
10
193.8664469
20
-193.1292452
40
2
50
64.9999983
51
115.0000017
0
ARC
8
0
10
227.2139662
20
-204.2659372
40
2
50
244.9999983
51
334.9999983
0
ARC
8
0
10
233.5532402
20
-190.6713204
40
2
50
334.9999983
51
64.9999983
0
ARC
8
0
10
202.7387755
20
-176.3022994
40
2
50
64.9999983
51
154.9999983
0
ARC
8
0
10
193.8664469
20
-185.864263
40
2
50
205.0000017
51
334.9999983
0
ARC
8
0
10
184.9941183
20
-176.3022994
40
2
50
25.0000017
51
115.0000017
0
ARC
8
0
10
154.1796536
20
-190.6713204
40
2
50
115.0000017
51
205.0000017
0
ARC
8
0
10
151.7683153
20
-186.8862773
40
2
50
220.0000012
51
310.0000012
0
ARC
8
0
10
177.8138263
20
-165.0314984
40
2
50
310.0000012
51
40.0000012
0
ARC
8
0
10
168.1720121
20
-153.5408318
40
2
50
40.0000012
51
130.0000012
0
ARC
8
0
10
142.1265011
20
-175.3956107
40
2
50
130.0000012
51
220.0000012
0
ARC
8
0
10
245.6063927
20
-175.3956107
40
2
50
319.9999988
51
49.9999988
0
ARC
8
0
10
219.5608817
20
-153.5408318
40
2
50
49.9999988
51
139.9999988
0
ARC
8
0
10
209.9190675
20
-165.0314984
40
2
50
139.9999988
51
229.9999988
0
ARC
8
0
10
235.9645785
20
-186.8862773
40
2
50
229.9999988
51
319.9999988
0
ARC
8
0
10
261.2024887
20
-163.7599935
40
2
50
304.9999997
51
34.9999997
0
ARC
8
0
10
252.5988422
20
-151.4727128
40
2
50
34.9999997
51
124.9999997
0
ARC
8
0
10
240.3115615
20
-160.0763593
40
2
50
124.9999997
51
214.9999997
0
ARC
8
0
10
248.915208
20
-172.36364
40
2
50
214.9999997
51
304.9999997
0
ARC
8
0
10
138.8176858
20
-172.36364
40
2
50
235.0000003
51
325.0000003
0
ARC
8
0
10
147.4213323
20
-160.0763593
40
2
50
325.0000003
51
55.0000003
0
ARC
8
0
10
135.1340516
20
-151.4727128
40
2
50
55.0000003
51
145.0000003
0
ARC
8
0
10
126.5304051
20
-163.7599935
40
2
50
145.0000003
51
235.0000003
0
ARC
8
0
10
122.5496031
20
-161.6877192
40
2
50
250.0000019
51
340.0000019
0
ARC
8
0
10
127.6799053
20
-147.5923298
40
2
50
340.0000019
51
70.0000019
0
ARC
8
0
10
113.5845159
20
-142.4620276
40
2
50
70.0000019
51
160.0000019
0
ARC
8
0
10
108.4542137
20
-156.557417
40
2
50
160.0000019
51
250.0000019
0
ARC
8
0
10
279.2786801
20
-156.557417
40
2
50
289.9999981
51
19.9999981
0
ARC
8
0
10
274.1483779
20
-142.4620276
40
2
50
19.9999981
51
109.9999981
0
ARC
8
0
10
260.0529885
20
-147.5923298
40
2
50
109.9999981
51
199.9999981
0
ARC
8
0
10
265.1832907
20
-161.6877192
40
2
50
199.9999981
51
289.9999981
0
ENDSEC
0
EOF