0
SECTION
2
HEADER
9
$INSUNITS
70
4
0
ENDSEC
0
SECTION
2
TABLES
0
TABLE
2
LTYPE
0
LTYPE
72
65
70
64
2
CONTINUOUS
3
______
73
0
40
0
0
ENDTAB
0
TABLE
2
LAYER
0
ENDTAB
0
ENDSEC
0
SECTION
2
ENTITIES
0
LINE
8
0
10
49.4516508
20
-135.7599823
11
83.2590547
21
-144.8186489
0
LINE
8
0
10
48.0374371
20
-133.3104926
11
62.0136656
21
-81.1504981
0
LINE
8
0
10
64.4631553
20
-79.7362844
11
97.3046334
21
-88.5361319
0
LINE
8
0
10
85.7085444
20
-143.4044352
11
87.7790967
21
-135.6770288
0
LINE
8
0
10
90.2285865
20
-134.2628151
11
104.7174739
21
-138.1451008
0
LINE
8
0
10
107.1669636
20
-136.7308871
11
107.4257826
21
-135.7649616
0
LINE
8
0
10
118.7630528
20
-81.8625838
11
104.2741652
21
-77.9802981
0
LINE
8
0
10
101.8246755
20
-79.3945118
11
99.7541232
21
-87.1219182
0
LINE
8
0
10
109.8752723
20
-134.3507479
11
123.3982338
21
-137.9742145
0
LINE
8
0
10
140.2722399
20
-86.590677
11
140.789878
21
-84.6588253
0
LINE
8
0
10
139.3756643
20
-82.2093356
11
123.9208512
21
-78.0682309
0
LINE
8
0
10
121.4713615
20
-79.4824446
11
121.2125425
21
-80.4483701
0
LINE
8
0
10
124.8124475
20
-140.4237043
11
124.5315266
21
-141.4721153
0
LINE
8
0
10
157.5895544
20
-95.3719421
11
158.1071925
21
-93.4400905
0
LINE
8
0
10
158.1071925
20
-93.4400905
11
141.6864536
21
-89.0401668
0
LINE
8
0
10
174.0102933
20
-99.7718659
11
157.5895544
21
-95.3719421
0
LINE
8
0
10
107.1293172
20
-158.7356385
11
123.2646555
21
-164.6084213
0
LINE
8
0
10
121.9156347
20
-142.8338625
11
113.9697199
21
-139.941786
0
LINE
8
0
10
111.4062944
20
-141.1371311
11
105.9339721
21
-156.172213
0
LINE
8
0
10
123.7277681
20
-164.8495024
11
137.4621818
21
-174.4664424
0
LINE
8
0
10
140.1498405
20
-176.9292278
11
148.7108284
21
-187.1318159
0
LINE
8
0
10
154.140695
20
-196.5032773
11
158.4644672
21
-205.7756368
0
LINE
8
0
10
161.1223193
20
-206.7430157
11
193.0212103
21
-191.8683186
0
LINE
8
0
10
304.4738391
20
-144.8186489
11
338.281243
21
-135.7599823
0
LINE
8
0
10
325.7192282
20
-81.1504981
11
339.6954567
21
-133.3104926
0
LINE
8
0
10
290.4282604
20
-88.5361319
11
323.2697385
21
-79.7362844
0
LINE
8
0
10
299.9537971
20
-135.6770288
11
302.0243494
21
-143.4044352
0
LINE
8
0
10
283.0154199
20
-138.1451008
11
297.5043073
21
-134.2628151
0
LINE
8
0
10
280.3071112
20
-135.7649616
11
280.5659302
21
-136.7308871
0
LINE
8
0
10
287.9787706
20
-87.1219182
11
285.9082183
21
-79.3945118
0
LINE
8
0
10
283.4587286
20
-77.9802981
11
268.969841
21
-81.8625838
0
LINE
8
0
10
264.33466
20
-137.9742145
11
277.8576215
21
-134.3507479
0
LINE
8
0
10
266.5203513
20
-80.4483701
11
266.2615323
21
-79.4824446
0
LINE
8
0
10
263.8120426
20
-78.0682309
11
248.3572295
21
-82.2093356
0
LINE
8
0
10
246.9430158
20
-84.6588253
11
247.4606539
21
-86.590677
0
LINE
8
0
10
263.2013672
20
-141.4721153
11
262.9204463
21
-140.4237043
0
LINE
8
0
10
246.0464402
20
-89.0401668
11
229.6257013
21
-93.4400905
0
LINE
8
0
10
229.6257013
20
-93.4400905
11
230.1433394
21
-95.3719421
0
LINE
8
0
10
230.1433394
20
-95.3719421
11
213.7226005
21
-99.7718659
0
LINE
8
0
10
264.4682383
20
-164.6084213
11
280.6035766
21
-158.7356385
0
LINE
8
0
10
281.7989217
20
-156.172213
11
276.3265994
21
-141.1371311
0
LINE
8
0
10
273.7631739
20
-139.941786
11
265.8172591
21
-142.8338625
0
LINE
8
0
10
250.270712
20
-174.4664424
11
264.0051257
21
-164.8495024
0
LINE
8
0
10
239.0220654
20
-187.1318159
11
247.5830533
21
-176.9292278
0
LINE
8
0
10
229.2684266
20
-205.7756368
11
233.5921988
21
-196.5032773
0
LINE
8
0
10
194.7116835
20
-191.8683186
11
226.6105745
21
-206.7430157
0
ARC
8
0
10
83.7766927
20
-142.8867972
40
2
50
255.0000021
51
345.0000021
0
ARC
8
0
10
89.7109485
20
-136.1946669
40
2
50
75.0000021
51
165.0000021
0
ARC
8
0
10
105.2351119
20
-136.2132491
40
2
50
255.0000021
51
345.0000021
0
ARC
8
0
10
109.3576343
20
-136.2825996
40
2
50
75.0000021
51
165.0000021
0
ARC
8
0
10
122.8805958
20
-139.9060662
40
2
50
345.0000021
51
75.0000021
0
ARC
8
0
10
122.5996749
20
-140.9544773
40
2
50
250.0000019
51
345.0000021
0
ARC
8
0
10
113.2856796
20
-141.8211713
40
2
50
70.0000019
51
160.0000019
0
ARC
8
0
10
107.8133574
20
-156.8562533
40
2
50
160.0000019
51
250.0000019
0
ARC
8
0
10
122.5806152
20
-166.4878065
40
2
50
55.0000003
51
70.0000019
0
ARC
8
0
10
160.2770828
20
-204.9304002
40
2
50
205.0000017
51
295.0000017
0
ARC
8
0
10
193.8664469
20
-193.6809342
40
2
50
64.9999983
51
115.0000017
0
ARC
8
0
10
227.455811
20
-204.9304002
40
2
50
244.9999983
51
334.9999983
0
ARC
8
0
10
265.1522786
20
-166.4878065
40
2
50
109.9999981
51
124.9999997
0
ARC
8
0
10
279.9195364
20
-156.8562533
40
2
50
289.9999981
51
19.9999981
0
ARC
8
0
10
274.4472142
20
-141.8211713
40
2
50
19.9999981
51
109.9999981
0
ARC
8
0
10
265.1332189
20
-140.9544773
40
2
50
194.9999979
51
289.9999981
0
ARC
8
0
10
264.852298
20
-139.9060662
40
2
50
104.9999979
51
194.9999979
0
ARC
8
0
10
278.3752595
20
-136.2825996
40
2
50
14.9999979
51
104.9999979
0
ARC
8
0
10
282.4977819
20
-136.2132491
40
2
50
194.9999979
51
284.9999979
0
ARC
8
0
10
298.0219453
20
-136.1946669
40
2
50
14.9999979
51
104.9999979
0
ARC
8
0
10
303.9562011
20
-142.8867972
40
2
50
194.9999979
51
284.9999979
0
ARC
8
0
10
337.763605
20
-133.8281306
40
2
50
284.9999979
51
14.9999979
0
ARC
8
0
10
323.7873765
20
-81.6681361
40
2
50
14.9999979
51
104.9999979
0
ARC
8
0
10
289.9106224
20
-86.6042802
40
2
50
194.9999979
51
284.9999979
0
ARC
8
0
10
283.9763666
20
-79.9121498
40
2
50
14.9999979
51
104.9999979
0
ARC
8
0
10
268.452203
20
-79.9307321
40
2
50
194.9999979
51
284.9999979
0
ARC
8
0
10
264.3296806
20
-80.0000826
40
2
50
14.9999979
51
104.9999979
0
ARC
8
0
10
248.8748675
20
-84.1411873
40
2
50
104.9999979
51
194.9999979
0
ARC
8
0
10
245.5288022
20
-87.108315
40
2
50
284.9999979
51
14.9999979
0
ARC
8
0
10
214.2402385
20
-101.7037176
40
2
50
104.9999979
51
159.2951885
0
ARC
8
0
10
173.4926553
20
-101.7037176
40
2
50
380.7048115
51
75.0000021
0
ARC
8
0
10
142.2040916
20
-87.108315
40
2
50
165.0000021
51
255.0000021
0
ARC
8
0
10
138.8580263
20
-84.1411873
40
2
50
345.0000021
51
75.0000021
0
ARC
8
0
10
123.4032132
20
-80.0000826
40
2
50
75.0000021
51
165.0000021
0
ARC
8
0
10
119.2806908
20
-79.9307321
40
2
50
255.0000021
51
345.0000021
0
ARC
8
0
10
103.7565272
20
-79.9121498
40
2
50
75.0000021
51
165.0000021
0
ARC
8
0
10
97.8222714
20
-86.6042802
40
2
50
255.0000021
51
345.0000021
0
ARC
8
0
10
63.9455173
20
-81.6681361
40
2
50
75.0000021
51
165.0000021
0
ARC
8
0
10
49.9692888
20
-133.8281306
40
2
50
165.0000021
51
255.0000021
0
LINE
8
0
10
212.3694098
20
-100.9966108
11
175.363484
21
-100.9966108
0
LINE
8
0
10
137.4621818
20
-174.4664424
11
140.1498405
21
-176.9292278
0
LINE
8
0
10
148.7108284
20
-187.1318159
11
154.140695
21
-196.5032773
0
LINE
8
0
10
233.5921988
20
-196.5032773
11
239.0220654
21
-187.1318159
0
LINE
8
0
10
247.5830533
20
-176.9292278
11
250.270712
21
-174.4664424
0
ENDSEC
0
EOF