0
SECTION
2
HEADER
9
$INSUNITS
70
4
0
ENDSEC
0
SECTION
2
TABLES
0
TABLE
2
LTYPE
0
LTYPE
72
65
70
64
2
CONTINUOUS
3
______
73
0
40
0
0
ENDTAB
0
TABLE
2
LAYER
0
ENDTAB
0
ENDSEC
0
SECTION
2
ENTITIES
0
LINE
8
0
10
-6.363961
20
11.0227038
11
11.0227038
21
6.363961
0
LINE
8
0
10
11.0227038
20
6.363961
11
6.363961
21
-11.0227038
0
LINE
8
0
10
6.363961
20
-11.0227038
11
-11.0227038
21
-6.363961
0
LINE
8
0
10
-11.0227038
20
-6.363961
11
-6.363961
21
11.0227038
0
LINE
8
0
10
-1.4463991
20
29.3752945
11
15.9402657
21
24.7165517
0
LINE
8
0
10
15.9402657
20
24.7165517
11
11.2815229
21
7.3298869
0
LINE
8
0
10
11.2815229
20
7.3298869
11
-6.1051419
21
11.9886297
0
LINE
8
0
10
-6.1051419
20
11.9886297
11
-1.4463991
21
29.3752945
0
LINE
8
0
10
3.4711628
20
47.7278853
11
20.8578276
21
43.0691425
0
LINE
8
0
10
20.8578276
20
43.0691425
11
16.1990848
21
25.6824777
0
LINE
8
0
10
16.1990848
20
25.6824777
11
-1.18758
21
30.3412205
0
LINE
8
0
10
-1.18758
20
30.3412205
11
3.4711628
21
47.7278853
0
LINE
8
0
10
11.9886297
20
6.1051419
11
29.3752945
21
1.4463991
0
LINE
8
0
10
29.3752945
20
1.4463991
11
24.7165517
21
-15.9402657
0
LINE
8
0
10
24.7165517
20
-15.9402657
11
7.3298869
21
-11.2815229
0
LINE
8
0
10
7.3298869
20
-11.2815229
11
11.9886297
21
6.1051419
0
LINE
8
0
10
16.9061916
20
24.4577326
11
34.2928564
21
19.7989898
0
LINE
8
0
10
34.2928564
20
19.7989898
11
29.6341136
21
2.412325
0
LINE
8
0
10
29.6341136
20
2.412325
11
12.2474488
21
7.0710678
0
LINE
8
0
10
12.2474488
20
7.0710678
11
16.9061916
21
24.4577326
0
LINE
8
0
10
21.8237535
20
42.8103234
11
39.2104183
21
38.1515806
0
LINE
8
0
10
39.2104183
20
38.1515806
11
34.5516755
21
20.7649158
0
LINE
8
0
10
34.5516755
20
20.7649158
11
17.1650107
21
25.4236586
0
LINE
8
0
10
17.1650107
20
25.4236586
11
21.8237535
21
42.8103234
0
LINE
8
0
10
33.4470489
20
12.77869
11
50.8337137
21
8.1199472
0
LINE
8
0
10
50.8337137
20
8.1199472
11
46.1749709
21
-9.2667176
0
LINE
8
0
10
46.1749709
20
-9.2667176
11
28.7883061
21
-4.6079748
0
LINE
8
0
10
28.7883061
20
-4.6079748
11
33.4470489
21
12.77869
0
LINE
8
0
10
38.3646108
20
31.1312807
11
55.7512756
21
26.4725379
0
LINE
8
0
10
55.7512756
20
26.4725379
11
51.0925328
21
9.0858731
0
LINE
8
0
10
51.0925328
20
9.0858731
11
33.705868
21
13.7446159
0
LINE
8
0
10
33.705868
20
13.7446159
11
38.3646108
21
31.1312807
0
LINE
8
0
10
43.2821727
20
49.4838715
11
60.6688375
21
44.8251287
0
LINE
8
0
10
60.6688375
20
44.8251287
11
56.0100947
21
27.4384639
0
LINE
8
0
10
56.0100947
20
27.4384639
11
38.6234299
21
32.0972067
0
LINE
8
0
10
38.6234299
20
32.0972067
11
43.2821727
21
49.4838715
0
LINE
8
0
10
53.0937349
20
12.6907573
11
70.4803997
21
8.0320145
0
LINE
8
0
10
70.4803997
20
8.0320145
11
65.8216569
21
-9.3546503
0
LINE
8
0
10
65.8216569
20
-9.3546503
11
48.4349921
21
-4.6959075
0
LINE
8
0
10
48.4349921
20
-4.6959075
11
53.0937349
21
12.6907573
0
LINE
8
0
10
58.0112968
20
31.043348
11
75.3979616
21
26.3846052
0
LINE
8
0
10
75.3979616
20
26.3846052
11
70.7392188
21
8.9979404
0
LINE
8
0
10
70.7392188
20
8.9979404
11
53.352554
21
13.6566832
0
LINE
8
0
10
53.352554
20
13.6566832
11
58.0112968
21
31.043348
0
LINE
8
0
10
62.9288587
20
49.3959387
11
80.3155235
21
44.7371959
0
LINE
8
0
10
80.3155235
20
44.7371959
11
75.6567807
21
27.3505311
0
LINE
8
0
10
75.6567807
20
27.3505311
11
58.2701159
21
32.0092739
0
LINE
8
0
10
58.2701159
20
32.0092739
11
62.9288587
21
49.3959387
0
LINE
8
0
10
69.8934113
20
1.9776404
11
87.2800761
21
-2.6811024
0
LINE
8
0
10
87.2800761
20
-2.6811024
11
82.6213333
21
-20.0677672
0
LINE
8
0
10
82.6213333
20
-20.0677672
11
65.2346685
21
-15.4090244
0
LINE
8
0
10
65.2346685
20
-15.4090244
11
69.8934113
21
1.9776404
0
LINE
8
0
10
74.8109732
20
20.3302312
11
92.197638
21
15.6714884
0
LINE
8
0
10
92.197638
20
15.6714884
11
87.5388952
21
-1.7151764
0
LINE
8
0
10
87.5388952
20
-1.7151764
11
70.1522304
21
2.9435664
0
LINE
8
0
10
70.1522304
20
2.9435664
11
74.8109732
21
20.3302312
0
LINE
8
0
10
79.7285351
20
38.6828219
11
97.1151999
21
34.0240791
0
LINE
8
0
10
97.1151999
20
34.0240791
11
92.4564571
21
16.6374143
0
LINE
8
0
10
92.4564571
20
16.6374143
11
75.0697923
21
21.2961571
0
LINE
8
0
10
75.0697923
20
21.2961571
11
79.7285351
21
38.6828219
0
LINE
8
0
10
87.7283639
20
-4.8717731
11
105.1150287
21
-9.5305159
0
LINE
8
0
10
105.1150287
20
-9.5305159
11
100.4562859
21
-26.9171807
0
LINE
8
0
10
100.4562859
20
-26.9171807
11
83.0696211
21
-22.2584379
0
LINE
8
0
10
83.0696211
20
-22.2584379
11
87.7283639
21
-4.8717731
0
LINE
8
0
10
92.6459257
20
13.4808177
11
110.0325905
21
8.8220749
0
LINE
8
0
10
110.0325905
20
8.8220749
11
105.3738477
21
-8.5645899
0
LINE
8
0
10
105.3738477
20
-8.5645899
11
87.9871829
21
-3.9058471
0
LINE
8
0
10
87.9871829
20
-3.9058471
11
92.6459257
21
13.4808177
0
LINE
8
0
10
97.5634876
20
31.8334084
11
114.9501524
21
27.1746656
0
LINE
8
0
10
114.9501524
20
27.1746656
11
110.2914096
21
9.7880008
0
LINE
8
0
10
110.2914096
20
9.7880008
11
92.9047448
21
14.4467436
0
LINE
8
0
10
92.9047448
20
14.4467436
11
97.5634876
21
31.8334084
0
LINE
8
0
10
52.9207595
20
-12.3681821
11
69.8352267
21
-18.5245447
0
LINE
8
0
10
69.8352267
20
-18.5245447
11
63.6788641
21
-35.4390119
0
LINE
8
0
10
63.6788641
20
-35.4390119
11
46.7643969
21
-29.2826493
0
LINE
8
0
10
46.7643969
20
-29.2826493
11
52.9207595
21
-12.3681821
0
LINE
8
0
10
74.9984404
20
-21.2123437
11
89.7431772
21
-31.5367195
0
LINE
8
0
10
89.7431772
20
-31.5367195
11
79.4188014
21
-46.2814563
0
LINE
8
0
10
79.4188014
20
-46.2814563
11
64.6740646
21
-35.9570805
0
LINE
8
0
10
64.6740646
20
-35.9570805
11
74.9984404
21
-21.2123437
0
LINE
8
0
10
94.0348052
20
-35.4692719
11
105.6049822
21
-49.2580719
0
LINE
8
0
10
105.6049822
20
-49.2580719
11
91.8161822
21
-60.8282489
0
LINE
8
0
10
91.8161822
20
-60.8282489
11
80.2460052
21
-47.0394489
0
LINE
8
0
10
80.2460052
20
-47.0394489
11
94.0348052
21
-35.4692719
0
LINE
8
0
10
108.5896497
20
-23.2563073
11
120.1598267
21
-37.0451073
0
LINE
8
0
10
120.1598267
20
-37.0451073
11
106.3710267
21
-48.6152843
0
LINE
8
0
10
106.3710267
20
-48.6152843
11
94.8008497
21
-34.8264843
0
LINE
8
0
10
94.8008497
20
-34.8264843
11
108.5896497
21
-23.2563073
0
LINE
8
0
10
108.7325569
20
-54.167381
11
116.3396856
21
-70.4809211
0
LINE
8
0
10
116.3396856
20
-70.4809211
11
100.0261455
21
-78.0880498
0
LINE
8
0
10
100.0261455
20
-78.0880498
11
92.4190168
21
-61.7745097
0
LINE
8
0
10
92.4190168
20
-61.7745097
11
108.7325569
21
-54.167381
0
LINE
8
0
10
125.9524048
20
-46.137634
11
133.5595335
21
-62.4511741
0
LINE
8
0
10
133.5595335
20
-62.4511741
11
117.2459934
21
-70.0583028
0
LINE
8
0
10
117.2459934
20
-70.0583028
11
109.6388647
21
-53.7447627
0
LINE
8
0
10
109.6388647
20
-53.7447627
11
125.9524048
21
-46.137634
0
LINE
8
0
10
134.4151671
20
20.6131715
11
125.6153196
21
-12.2283066
0
LINE
8
0
10
125.6153196
20
-12.2283066
11
108.2286547
21
-7.5695637
0
LINE
8
0
10
108.2286547
20
-7.5695637
11
117.0285022
21
25.2719144
0
LINE
8
0
10
117.0285022
20
25.2719144
11
134.4151671
21
20.6131715
0
LINE
8
0
10
257.1756944
20
6.363961
11
274.5623592
21
11.0227038
0
LINE
8
0
10
274.5623592
20
11.0227038
11
279.221102
21
-6.363961
0
LINE
8
0
10
279.221102
20
-6.363961
11
261.8344372
21
-11.0227038
0
LINE
8
0
10
261.8344372
20
-11.0227038
11
257.1756944
21
6.363961
0
LINE
8
0
10
252.2581325
20
24.7165517
11
269.6447973
21
29.3752945
0
LINE
8
0
10
269.6447973
20
29.3752945
11
274.3035401
21
11.9886297
0
LINE
8
0
10
274.3035401
20
11.9886297
11
256.9168753
21
7.3298869
0
LINE
8
0
10
256.9168753
20
7.3298869
11
252.2581325
21
24.7165517
0
LINE
8
0
10
247.3405706
20
43.0691425
11
264.7272354
21
47.7278853
0
LINE
8
0
10
264.7272354
20
47.7278853
11
269.3859782
21
30.3412205
0
LINE
8
0
10
269.3859782
20
30.3412205
11
251.9993134
21
25.6824777
0
LINE
8
0
10
251.9993134
20
25.6824777
11
247.3405706
21
43.0691425
0
LINE
8
0
10
238.8231037
20
1.4463991
11
256.2097685
21
6.1051419
0
LINE
8
0
10
256.2097685
20
6.1051419
11
260.8685113
21
-11.2815229
0
LINE
8
0
10
260.8685113
20
-11.2815229
11
243.4818465
21
-15.9402657
0
LINE
8
0
10
243.4818465
20
-15.9402657
11
238.8231037
21
1.4463991
0
LINE
8
0
10
233.9055418
20
19.7989898
11
251.2922066
21
24.4577326
0
LINE
8
0
10
251.2922066
20
24.4577326
11
255.9509494
21
7.0710678
0
LINE
8
0
10
255.9509494
20
7.0710678
11
238.5642846
21
2.412325
0
LINE
8
0
10
238.5642846
20
2.412325
11
233.9055418
21
19.7989898
0
LINE
8
0
10
228.9879799
20
38.1515806
11
246.3746447
21
42.8103234
0
LINE
8
0
10
246.3746447
20
42.8103234
11
251.0333875
21
25.4236586
0
LINE
8
0
10
251.0333875
20
25.4236586
11
233.6467227
21
20.7649158
0
LINE
8
0
10
233.6467227
20
20.7649158
11
228.9879799
21
38.1515806
0
LINE
8
0
10
217.3646845
20
8.1199472
11
234.7513493
21
12.77869
0
LINE
8
0
10
234.7513493
20
12.77869
11
239.4100921
21
-4.6079748
0
LINE
8
0
10
239.4100921
20
-4.6079748
11
222.0234273
21
-9.2667176
0
LINE
8
0
10
222.0234273
20
-9.2667176
11
217.3646845
21
8.1199472
0
LINE
8
0
10
212.4471226
20
26.4725379
11
229.8337874
21
31.1312807
0
LINE
8
0
10
229.8337874
20
31.1312807
11
234.4925302
21
13.7446159
0
LINE
8
0
10
234.4925302
20
13.7446159
11
217.1058654
21
9.0858731
0
LINE
8
0
10
217.1058654
20
9.0858731
11
212.4471226
21
26.4725379
0
LINE
8
0
10
207.5295607
20
44.8251287
11
224.9162255
21
49.4838715
0
LINE
8
0
10
224.9162255
20
49.4838715
11
229.5749683
21
32.0972067
0
LINE
8
0
10
229.5749683
20
32.0972067
11
212.1883035
21
27.4384639
0
LINE
8
0
10
212.1883035
20
27.4384639
11
207.5295607
21
44.8251287
0
LINE
8
0
10
197.7179985
20
8.0320145
11
215.1046633
21
12.6907573
0
LINE
8
0
10
215.1046633
20
12.6907573
11
219.7634061
21
-4.6959075
0
LINE
8
0
10
219.7634061
20
-4.6959075
11
202.3767413
21
-9.3546503
0
LINE
8
0
10
202.3767413
20
-9.3546503
11
197.7179985
21
8.0320145
0
LINE
8
0
10
192.8004366
20
26.3846052
11
210.1871014
21
31.043348
0
LINE
8
0
10
210.1871014
20
31.043348
11
214.8458442
21
13.6566832
0
LINE
8
0
10
214.8458442
20
13.6566832
11
197.4591794
21
8.9979404
0
LINE
8
0
10
197.4591794
20
8.9979404
11
192.8004366
21
26.3846052
0
LINE
8
0
10
187.8828747
20
44.7371959
11
205.2695395
21
49.3959387
0
LINE
8
0
10
205.2695395
20
49.3959387
11
209.9282823
21
32.0092739
0
LINE
8
0
10
209.9282823
20
32.0092739
11
192.5416175
21
27.3505311
0
LINE
8
0
10
192.5416175
20
27.3505311
11
187.8828747
21
44.7371959
0
LINE
8
0
10
180.9183221
20
-2.6811024
11
198.3049869
21
1.9776404
0
LINE
8
0
10
198.3049869
20
1.9776404
11
202.9637297
21
-15.4090244
0
LINE
8
0
10
202.9637297
20
-15.4090244
11
185.5770649
21
-20.0677672
0
LINE
8
0
10
185.5770649
20
-20.0677672
11
180.9183221
21
-2.6811024
0
LINE
8
0
10
176.0007602
20
15.6714884
11
193.387425
21
20.3302312
0
LINE
8
0
10
193.387425
20
20.3302312
11
198.0461678
21
2.9435664
0
LINE
8
0
10
198.0461678
20
2.9435664
11
180.659503
21
-1.7151764
0
LINE
8
0
10
180.659503
20
-1.7151764
11
176.0007602
21
15.6714884
0
LINE
8
0
10
171.0831983
20
34.0240791
11
188.4698631
21
38.6828219
0
LINE
8
0
10
188.4698631
20
38.6828219
11
193.1286059
21
21.2961571
0
LINE
8
0
10
193.1286059
20
21.2961571
11
175.7419411
21
16.6374143
0
LINE
8
0
10
175.7419411
20
16.6374143
11
171.0831983
21
34.0240791
0
LINE
8
0
10
163.0833695
20
-9.5305159
11
180.4700343
21
-4.8717731
0
LINE
8
0
10
180.4700343
20
-4.8717731
11
185.1287771
21
-22.2584379
0
LINE
8
0
10
185.1287771
20
-22.2584379
11
167.7421123
21
-26.9171807
0
LINE
8
0
10
167.7421123
20
-26.9171807
11
163.0833695
21
-9.5305159
0
LINE
8
0
10
158.1658077
20
8.8220749
11
175.5524725
21
13.4808177
0
LINE
8
0
10
175.5524725
20
13.4808177
11
180.2112153
21
-3.9058471
0
LINE
8
0
10
180.2112153
20
-3.9058471
11
162.8245505
21
-8.5645899
0
LINE
8
0
10
162.8245505
20
-8.5645899
11
158.1658077
21
8.8220749
0
LINE
8
0
10
153.2482458
20
27.1746656
11
170.6349106
21
31.8334084
0
LINE
8
0
10
170.6349106
20
31.8334084
11
175.2936534
21
14.4467436
0
LINE
8
0
10
175.2936534
20
14.4467436
11
157.9069886
21
9.7880008
0
LINE
8
0
10
157.9069886
20
9.7880008
11
153.2482458
21
27.1746656
0
LINE
8
0
10
198.3631715
20
-18.5245447
11
215.2776387
21
-12.3681821
0
LINE
8
0
10
215.2776387
20
-12.3681821
11
221.4340013
21
-29.2826493
0
LINE
8
0
10
221.4340013
20
-29.2826493
11
204.5195341
21
-35.4390119
0
LINE
8
0
10
204.5195341
20
-35.4390119
11
198.3631715
21
-18.5245447
0
LINE
8
0
10
178.455221
20
-31.5367195
11
193.1999578
21
-21.2123437
0
LINE
8
0
10
193.1999578
20
-21.2123437
11
203.5243336
21
-35.9570805
0
LINE
8
0
10
203.5243336
20
-35.9570805
11
188.7795968
21
-46.2814563
0
LINE
8
0
10
188.7795968
20
-46.2814563
11
178.455221
21
-31.5367195
0
LINE
8
0
10
162.593416
20
-49.2580719
11
174.163593
21
-35.4692719
0
LINE
8
0
10
174.163593
20
-35.4692719
11
187.952393
21
-47.0394489
0
LINE
8
0
10
187.952393
20
-47.0394489
11
176.382216
21
-60.8282489
0
LINE
8
0
10
176.382216
20
-60.8282489
11
162.593416
21
-49.2580719
0
LINE
8
0
10
148.0385715
20
-37.0451073
11
159.6087485
21
-23.2563073
0
LINE
8
0
10
159.6087485
20
-23.2563073
11
173.3975485
21
-34.8264843
0
LINE
8
0
10
173.3975485
20
-34.8264843
11
161.8273715
21
-48.6152843
0
LINE
8
0
10
161.8273715
20
-48.6152843
11
148.0385715
21
-37.0451073
0
LINE
8
0
10
151.8587126
20
-70.4809211
11
159.4658413
21
-54.167381
0
LINE
8
0
10
159.4658413
20
-54.167381
11
175.7793814
21
-61.7745097
0
LINE
8
0
10
175.7793814
20
-61.7745097
11
168.1722527
21
-78.0880498
0
LINE
8
0
10
168.1722527
20
-78.0880498
11
151.8587126
21
-70.4809211
0
LINE
8
0
10
134.6388647
20
-62.4511741
11
142.2459934
21
-46.137634
0
LINE
8
0
10
142.2459934
20
-46.137634
11
158.5595335
21
-53.7447627
0
LINE
8
0
10
158.5595335
20
-53.7447627
11
150.9524048
21
-70.0583028
0
LINE
8
0
10
150.9524048
20
-70.0583028
11
134.6388647
21
-62.4511741
0
LINE
8
0
10
142.5830786
20
-12.2283066
11
133.7832311
21
20.6131715
0
LINE
8
0
10
133.7832311
20
20.6131715
11
151.169896
21
25.2719144
0
LINE
8
0
10
151.169896
20
25.2719144
11
159.9697435
21
-7.5695637
0
LINE
8
0
10
159.9697435
20
-7.5695637
11
142.5830786
21
-12.2283066
0
ENDSEC
0
EOF